<svg xmlns="http://www.w3.org/2000/svg" viewBox="0 0 16 16">
  <path d="M4.96 2.126l.613.416c.301.204.663.321.982.425.158.051.396.128.466.173l.035.023.01.006c.13.084.309.2.535.272C7.748 3.488 7.906 3.513 8.06 3.513c.339 0 .651-.12.881-.339.274.105.601.224.972.25.038.135.068.273.1.423.057.267.122.569.239.889.089.259.208.609.491.91.17.203.355.324.48.407l.031.021c.029.04.076.119.111.179.075.128.166.282.29.437.124.187.296.347.49.456-.088.076-.18.15-.278.222-.365.24-.64.498-.839.788L11.004 8.19l-.02.035-.027.047c-.217.377-.542.941-.423 1.627.034.285.108.529.174.745.017.055.034.11.05.166l-.022.011-.034.02c-.096.056-.938.57-.938 1.369 0 .095.01.182.027.262-.218.2-.351.476-.354.785-.104.14-.181.278-.247.397-.023.042-.046.085-.071.126-.071.037-.216.084-.395.12-.093-.214-.222-.361-.308-.457-.158-.228-.362-.396-.544-.545-.039-.032-.089-.073-.131-.109-.014-.118-.032-.235-.059-.34-.099-.385-.315-.667-.489-.894-.032-.041-.073-.095-.105-.14.02-.049.046-.108.068-.156.099-.221.234-.523.265-.894l.004-.043v-.043c0-.499-.127-.942-.395-1.371.057-.163.105-.375.093-.624C7.139 8.2 7.158 8.088 7.158 7.957c0-.008-.022-.643-.291-1.164C6.855 6.754 6.841 6.716 6.825 6.678 6.626 6.218 6.181 5.985 5.5 5.985c-.04 0-.09 0-.148 0-.586 0-1.988 0-2.326-.001C2.999 5.971 2.972 5.955 2.946 5.94L2.741 5.824C2.63 5.762 2.451 5.662 2.269 5.557c.006-.015.011-.03.016-.045.221-.641.094-1.106-.069-1.397.039-.033.081-.064.126-.094l.06-.034c.237-.13.73-.402.92-1.048.023-.09.036-.175.042-.252.069-.054.145-.12.219-.201.005 0 .01 0 .014 0 .419 0 .775-.15 1.034-.259C4.678 2.209 4.72 2.191 4.761 2.175 4.827 2.156 4.893 2.14 4.96 2.126M5.889 1C5.382 1.035 4.911 1.071 4.441 1.211c-.25.091-.553.26-.841.26-.046 0-.092-.004-.137-.014-.109-.035-.181-.105-.29-.105-.109 0-.217.035-.254.105-.036.071 0 .105 0 .176C2.883 1.913 2.448 1.984 2.376 2.23c-.036.141 0 .316-.036.457C2.268 2.932 2.014 3.038 1.833 3.144c-.326.211-.579.457-.76.808C1.036 4.022 1 4.093 1 4.162c0 .141.217.281.29.386C1.434 4.725 1.398 4.97 1.326 5.181c-.073.211-.217.386-.29.562C1 5.814 1 5.885 1 5.919c.036.035.073.07.109.106.326.246 1.145.686 1.326.792.157.091.341.18.505.182C3 7 5 7 5.5 7c0 0 .5 0 .375.133C6.02 7.238 6.142 7.817 6.142 7.957c0 .14-.073.246-.036.352.036.387-.349.597-.096.913.254.316.398.632.398 1.054-.036.422-.362.773-.362 1.194 0 .457.543.808.652 1.23.036.141.036.316.073.457.073.316.639.597.82.878.073.106.181.175.217.316 0 .071 0 .141 0 .211 0 .175.145.351.326.422C8.166 14.995 8.201 15 8.238 15c.09 0 .192-.025.294-.05.398-.035 1.123-.175 1.376-.527.158-.219.254-.492.434-.668.109-.105.217-.211.181-.351-.036-.071-.073-.106-.073-.141 0-.071.145-.106.217-.106.073 0 .145 0 .217 0 .181-.035.254-.246.217-.386-.036-.175-.217-.281-.29-.457-.036-.035-.036-.07-.036-.105 0-.141.254-.387.434-.492.217-.105.471-.211.579-.422.073-.175.073-.351 0-.527-.073-.352-.217-.668-.254-1.019-.073-.351.145-.703.326-1.019.145-.211.362-.387.579-.527C13.167 7.677 13.891 6.878 14 6c-.254.211-.688.272-1.05.306-.109 0-.217 0-.29-.035-.073-.035-.145-.106-.181-.175C12.262 5.85 12.153 5.498 11.9 5.288c-.145-.106-.29-.175-.398-.317-.145-.141-.217-.352-.29-.563-.217-.598-.217-1.09-.471-1.687-.073-.14-.145-.316-.29-.316-.073 0-.145 0-.254 0-.045.007-.091.009-.136.009-.456 0-.912-.296-1.373-.391C8.645 2.009 8.594 2 8.544 2c-.07 0-.138.017-.18.058C8.256 2.164 8.348 2.335 8.24 2.44 8.197 2.481 8.13 2.498 8.06 2.498c-.049 0-.101-.008-.146-.023C7.805 2.44 7.701 2.369 7.592 2.299 7.23 2.053 6.506 1.948 6.144 1.702c.073-.105.109-.211.145-.317.036-.105-.038-.28-.146-.35C6.07 1 5.961 1 5.889 1L5.889 1zM13.875 10c-.099.215-.232.465-.398.571-.132.071-.299.143-.365.285-.099.179 0 .393-.033.571 0 .071-.033.143-.066.215-.033.179 0 .393.066.571.033.107.099.25.199.285.066 0 .166-.035.232-.107.066-.071.132-.215.166-.321s.033-.215.033-.321c.033-.321.199-.643.266-.965.033-.215.033-.429 0-.643C13.942 10.071 13.909 10 13.875 10l.017.035c.009.009.017.018.017.035l-.017-.035C13.884 10.027 13.875 10.018 13.875 10L13.875 10z"/>
</svg>