<svg xmlns="http://www.w3.org/2000/svg" width="26" height="26" viewBox="0 0 26 26">
  <path fill="none" stroke="#000" stroke-linecap="round" stroke-linejoin="round" stroke-miterlimit="10" stroke-width="2" d="M24.79,9.537c-0.576,1.411,0,2.674,0,2.674L15,24L3,20.438c0,0-2-0.853-2-3.438c0-3.576,3.081-2.764,3.081-2.764"/>
  <path d="M25.84,4.567c-0.119-0.346-0.412-0.603-0.768-0.681L12.629,1.107c-0.374-0.078-0.765,0.049-1.017,0.34 L1.266,12.963c-0.237,0.271-0.891,1.318-1.094,2.678c0.577-0.715,1.266-1.072,1.614-0.979l12.187,3.479 c0.09,0.025,0.182,0.036,0.271,0.036c0.311,0,0.611-0.138,0.812-0.384L25.661,5.578C25.893,5.295,25.961,4.912,25.84,4.567z M20.144,7.546L19.347,8.49c-0.222,0.262-0.735,0.392-1.145,0.295l-7.428-1.81c-0.409-0.098-0.563-0.392-0.345-0.65l0.799-0.949 c0.22-0.26,0.734-0.39,1.144-0.292L19.8,6.891C20.207,6.989,20.363,7.284,20.144,7.546z"/>
</svg>