<svg xmlns="http://www.w3.org/2000/svg" viewBox="0 0 32 32">
  <path d="M28,18.77v-2.557l-1.875-0.256c-0.092-0.013-1.249-0.121-2.58-0.127c1.445-2.708,2-5.083,2.006-5.111l0.311-1.358l-1.166-0.762l-0.071-0.046l-0.993-0.649l-1.046,0.56c-0.252,0.135-1.802,0.987-3.357,2.336c-0.293-2.623-0.967-4.824-1.245-5.53L17.488,4h-1.363h-0.219h-1.33l-0.514,1.226c-0.058,0.138-1.26,3.041-1.557,6.491c-1.651-1.342-4.443-2.884-4.443-2.884l-2.107,1.644l0.201,1.035C6.373,12.529,7.453,15,7.453,15C6.333,15,4,15.393,4,15.393v2.644c0,0,1.875,1.587,4.036,2.731c-0.092,0.087-0.152,0.149-0.179,0.177l-0.94,0.804l0.279,1.075l0.296,1.142L8.645,24.3c0.167,0.043,1.237,0.258,2.41,0.258c0.827,0,1.61-0.106,2.328-0.314c0.075-0.02,0.15-0.041,0.223-0.063c0.211,1.205,0.468,2.166,0.517,2.346L14.527,28H21c-1.292-1.333-2.18-3.417-2.18-3.417c-0.01-0.013-0.019-0.027-0.029-0.042c0.792,0.333,1.833,0.458,2.803,0.481l1.362-0.083l0.547-0.895l0.538-0.919c0,0-0.458-1.083-0.979-1.549c1.541-0.57,3.388-1.408,4.172-2.155L28,18.77z M21.5,19.986c-0.583,0.167-2.268,0.396-2.896,0.473c0,0,2.415,1.398,2.811,2.44c-0.001,0.01,0.006,0.023,0.005,0.034c-0.023-0.001-0.044-0.015-0.068-0.013c-1.875,0.146-4.823-1.502-5.161-1.79c0.072,1.068,0.455,3.57,1.356,4.838L17.519,26h-1.467c0,0-1.095-2.928-1.021-4.969c-0.513,0.437-1.105,1.001-2.205,1.293c-0.609,0.177-1.226,0.235-1.771,0.235c-0.858,0-1.715-0.144-1.913-0.195l-0.01-0.04c0,0,1.422-1.311,3.255-1.748c0.22-0.073,0.44-0.146,0.66-0.146c-0.733-0.146-1.466-0.291-2.273-0.583c-2.406-0.888-4.471-2.46-4.665-2.656L6.105,17.15c0,0,0.767-0.042,1.348-0.042c0.944,0,2.493,0.112,4.127,0.698c0.44,0.146,0.88,0.292,1.247,0.51c-0.607-0.536-3.639-3.066-4.539-6.874l0,0c0,0,4.4,2.266,6.691,5.891c-0.333-1.583-0.539-3.305-0.539-4.131C14.44,9.496,15.906,6,15.906,6h0.219c0.345,0.88,1.246,3.995,1.246,7.203c0,1.087-0.303,3.604-0.365,4.093c0.163-0.388,0.777-1.594,1.607-2.858c1.599-2.434,4.919-4.211,4.919-4.211l0.071,0.046c-0.115,0.501-0.891,3.306-2.637,6.002c-0.435,0.672-1.79,1.949-1.906,2.041c0.205-0.052,0.911-0.329,3.007-0.447c0.504-0.029,0.965-0.039,1.375-0.039c1.295,0,2.411,0.108,2.411,0.108l0.003,0.035C25.244,18.554,23.259,19.482,21.5,19.986z"/>
</svg>