<svg xmlns="http://www.w3.org/2000/svg" viewBox="0 0 64 64" id="christmas">
    <path d="M17 51c-.552 0-1 .448-1 1v2c0 .552.448 1 1 1s1-.448 1-1v-2C18 51.448 17.552 51 17 51zM22 51c-.552 0-1 .448-1 1v2c0 .552.448 1 1 1s1-.448 1-1v-2C23 51.448 22.552 51 22 51zM27 51c-.552 0-1 .448-1 1v2c0 .552.448 1 1 1s1-.448 1-1v-2C28 51.448 27.552 51 27 51zM32 51c-.552 0-1 .448-1 1v2c0 .552.448 1 1 1s1-.448 1-1v-2C33 51.448 32.552 51 32 51zM37 51c-.552 0-1 .448-1 1v2c0 .552.448 1 1 1s1-.448 1-1v-2C38 51.448 37.552 51 37 51zM42 51c-.552 0-1 .448-1 1v2c0 .552.448 1 1 1s1-.448 1-1v-2C43 51.448 42.552 51 42 51zM48 52c0-.552-.448-1-1-1s-1 .448-1 1v2c0 .552.448 1 1 1s1-.448 1-1V52z"/>
    <path d="M54.641,55.858L46.417,44h1.576c0.776,0,1.469-0.434,1.807-1.131c0.336-0.695,0.247-1.503-0.233-2.109L41.036,30h1.946c0.806,0,1.51-0.453,1.84-1.182c0.325-0.721,0.202-1.539-0.321-2.133l-10.769-12.23l2.399,1.359c0.28,0.175,0.625,0.229,0.945,0.146c0.321-0.082,0.601-0.296,0.761-0.582c0.146-0.255,0.196-0.556,0.143-0.848c-0.01-0.053-0.023-0.104-0.042-0.155l-1.492-4.18l3.097-2.849c0.378-0.307,0.541-0.81,0.416-1.283c-0.004-0.016-0.009-0.031-0.014-0.046c-0.148-0.468-0.558-0.804-1.051-0.855l-4.198-0.401L33.143,0.77c-0.125-0.31-0.374-0.558-0.682-0.682c-0.307-0.123-0.653-0.115-0.945,0.017c-0.293,0.129-0.521,0.366-0.648,0.678L29.32,4.76l-4.218,0.4c-0.667,0.068-1.159,0.673-1.097,1.343c0.027,0.306,0.166,0.589,0.395,0.802l3.148,2.895l-1.45,4.185c-0.015,0.043-0.027,0.088-0.036,0.133c-0.13,0.658,0.292,1.309,0.94,1.452C27.092,15.99,27.183,16,27.271,16c0.221,0,0.434-0.059,0.606-0.167l2.373-1.36L19.5,26.685c-0.524,0.595-0.647,1.413-0.321,2.133c0.33,0.729,1.035,1.182,1.84,1.182h1.895l-8.482,10.764c-0.478,0.605-0.566,1.413-0.229,2.107C14.54,43.567,15.231,44,16.006,44h1.544L9.356,55.862c-0.424,0.614-0.472,1.408-0.125,2.069C9.577,58.591,10.254,59,10.998,59H24v3c0,1.103,0.897,2,2,2h12c1.103,0,2-0.897,2-2v-3h13.002c0.744,0,1.422-0.41,1.768-1.071C55.116,57.267,55.067,56.473,54.641,55.858z M28.669,13.075l0.983-2.839c0.13-0.376,0.025-0.794-0.268-1.063L27.01,6.989l3.113-0.295c0.376-0.036,0.701-0.281,0.838-0.633l1.047-2.691l1.047,2.691c0.137,0.353,0.46,0.597,0.837,0.633l3.088,0.295l-2.375,2.184c-0.296,0.272-0.4,0.694-0.265,1.073l1.01,2.828l-2.862-1.622c-0.308-0.173-0.684-0.173-0.991,0.002L28.669,13.075z M26,62v-3h12l0.002,3H26z M10.969,57.046L19.98,44H28c0.552,0,1-0.447,1-1s-0.448-1-1-1l-11.998,0.002L25.46,30h3.492c0.552,0,1-0.448,1-1s-0.448-1-1-1L21,28.006l10.999-12.492L42.982,28h-3.871c-0.152,0-0.292,0.039-0.421,0.1c-0.109,0.036-0.216,0.083-0.311,0.159c-0.433,0.343-0.506,0.972-0.162,1.405L47.992,42h-5.975c-0.553,0-1,0.447-1,1s0.447,1,1,1h1.965l9.019,13L10.969,57.046z"/>
</svg>