<svg xmlns="http://www.w3.org/2000/svg" viewBox="0 0 30 30" id="christmas">
    <path d="M21.5 17A1.5 1.5 0 1 0 21.5 20 1.5 1.5 0 1 0 21.5 17zM15 12A2 2 0 1 0 15 16 2 2 0 1 0 15 12zM8.5 17A1.5 1.5 0 1 0 8.5 20 1.5 1.5 0 1 0 8.5 17z"/>
    <path d="M15 14L13.679 12.498 7.634 17.276 8.5 20 15 20zM23.5 25A1.5 1.5 0 1 0 23.5 28 1.5 1.5 0 1 0 23.5 25z"/>
    <path d="M15 18A2 2 0 1 0 15 22 2 2 0 1 0 15 18zM6.5 25A1.5 1.5 0 1 0 6.5 28 1.5 1.5 0 1 0 6.5 25zM15 6A1 1 0 1 0 15 8 1 1 0 1 0 15 6zM20 11A1 1 0 1 0 20 13 1 1 0 1 0 20 11z"/>
    <path d="M15 7L15.645 6.241 20.613 11.21 20 13 15 13zM10 11A1 1 0 1 0 10 13 1 1 0 1 0 10 11zM15.146 1.091l.559 1.133 1.25.182c.133.019.187.183.09.277l-.905.882.214 1.245c.023.133-.117.234-.236.171L15 4.393l-1.118.588c-.119.063-.259-.039-.236-.171l.214-1.245-.905-.882c-.096-.094-.043-.258.09-.277l1.25-.182.559-1.133C14.914.97 15.086.97 15.146 1.091zM16.321 18.5L15 21v7h8.5l.869-2.722L16.321 18.5zM18 26c-.552 0-1-.448-1-1 0-.552.448-1 1-1s1 .448 1 1C19 25.552 18.552 26 18 26zM13.679 18.5l-8.049 6.778L6.5 28H15v-7L13.679 18.5zM13 24c-.552 0-1-.448-1-1 0-.552.448-1 1-1s1 .448 1 1C14 23.552 13.552 24 13 24z"/>
    <path d="M16.32 12.498L15 14v6h6.5l.866-2.724L16.32 12.498zM17 18c-.552 0-1-.448-1-1 0-.552.448-1 1-1s1 .448 1 1C18 17.552 17.552 18 17 18zM14.355 6.241L9.388 11.21 10 13h5v-3c0 .552-.448 1-1 1s-1-.448-1-1c0-.552.448-1 1-1s1 .448 1 1V7L14.355 6.241z"/>
</svg>