<svg xmlns="http://www.w3.org/2000/svg" viewBox="0 0 50 50">
  <path fill="none" stroke="#000" stroke-miterlimit="10" stroke-width="2" d="M28.8,14.6l-3.6-7.2C23.9,4.7,21.1,3,18.1,3H9c-4.4,0-8,3.6-8,8v24h24h24v-8c0-4.4-3.6-8-8-8h-5.1C32.9,19,30.1,17.3,28.8,14.6z"/>
  <path d="M20.3 43L20 35 23 35 22.7 43zM24.3 43L24 35 27 35 26.7 43zM28.3 43L28 35 31 35 30.7 43zM36.3 43L36 35 39 35 38.7 43zM40.3 43L40 35 43 35 42.7 43zM8.3 43L8 35 11 35 10.7 43zM12.3 43L12 35 15 35 14.7 43z"/>
  <path fill="none" stroke="#000" stroke-miterlimit="10" stroke-width="2" d="M49,35v10c0,1.1-0.9,2-2,2H3c-1.1,0-2-0.9-2-2V35H49z"/>
</svg>