<svg xmlns="http://www.w3.org/2000/svg" version="1.0" viewBox="0 0 24 24">
  <path d="M6,7.5C6,7.5,7.4,7,8.5,7S11,7.5,11,7.5s-0.9,2.1-2.5,2.1S6,7.5,6,7.5z"/>
  <path d="M19,4v7c0,4.5-5,7.7-7,8.8c-2-1.1-7-4.2-7-8.8V4H19 M19,2H5C3.9,2,3,2.9,3,4c0,0,0,3,0,7c0,7.1,9,11,9,11s9-4,9-11 c0-3.9,0-7,0-7C21,2.9,20.1,2,19,2L19,2z"/>
  <path d="M15.3,13c0,0-1.8,0.8-3.3,0.8c-1.5,0-3.3-0.8-3.3-0.8s1.2,3,3.3,3C14.2,16,15.3,13,15.3,13L15.3,13z"/>
  <path d="M19,2h-7v20c0,0,9-4,9-11c0-3.9,0-7,0-7C21,2.9,20.1,2,19,2z M15.5,9.6c-1.6,0-2.5-2.1-2.5-2.1S14.4,7,15.5,7 S18,7.5,18,7.5S17.1,9.6,15.5,9.6z"/>
</svg>