<svg xmlns="http://www.w3.org/2000/svg" width="26" height="26" viewBox="0 0 26 26"><path d="M24.992,10.084c1.614,1.665,1.204,4.715-3.591,5.736c0-2.102-3.689-2.916-8.379-2.916 c-5.028,0-8.594,0.773-8.594,2.974c-4.811-0.992-5.087-4.37-3.156-6.06c2.35-2.056,3.31,1.362,11.714,1.362 C20.644,11.181,22.415,7.426,24.992,10.084z"/><path d="M12.987 9.834c3.761 0 7.938-1.868 7.938-1.868v-1.23c0-3.273-2.066-6.586-7.919-6.586-6.125 0-7.92 3.414-7.92 6.586v1.299C5.086 8.034 9.389 9.834 12.987 9.834zM13 15.121c-.453 0-.863.164-1.192.428.141-.087.297-.15.475-.15.509 0 .92.412.92.921s-.411.92-.92.92-.921-.411-.921-.92c0-.178.063-.334.149-.475-.263.328-.427.74-.427 1.192 0 1.059.857 1.916 1.916 1.916s1.916-.857 1.916-1.916S14.059 15.121 13 15.121zM7.787 20.879c.196.123.42.277.607.406 1.081.745 2.562 1.766 4.641 1.766 2.086 0 3.606-.997 4.717-1.726.099-.064.208-.136.317-.206-.164.313-.425.699-.813 1.123-.934 1.013-2.532 2.096-4.221 2.096-1.847 0-3.561-1.207-4.466-2.239C8.137 21.605 7.9 21.175 7.787 20.879M7.438 19.076c-.315 0-.624.125-.938.433-1.682 1.646 2.266 6.429 6.535 6.429 4.266 0 8.055-4.937 6.531-6.429-.271-.267-.549-.376-.84-.376-1.336 0-2.958 2.318-5.691 2.318C10.327 21.451 8.813 19.076 7.438 19.076L7.438 19.076z"/></svg>