<svg xmlns="http://www.w3.org/2000/svg" viewBox="0 0 50 50">
  <path fill="none" stroke="#000" stroke-miterlimit="10" stroke-width="2" d="M10.128,33.863C13.609,34.555,18.971,35,25,35c6.029,0,11.392-0.445,14.872-1.136"/>
  <path fill="none" stroke="#000" stroke-miterlimit="10" stroke-width="2" d="M23.136 17.128C22.445 20.608 22 25.971 22 32c0 6.029.445 11.392 1.136 14.872M26.864 46.872C27.555 43.392 28 38.029 28 32c0-6.029-.445-11.391-1.136-14.872"/>
  <path d="M33,38.102c0,0,2.563,3.496,3.688,4.949C35.563,44.504,33,48,33,48s3.496-2.563,4.949-3.684C39.402,45.438,42.902,48,42.902,48s-2.566-3.496-3.688-4.949c1.121-1.453,3.688-4.949,3.688-4.949s-3.5,2.563-4.953,3.684C36.496,40.664,33,38.102,33,38.102z"/>
  <path fill="none" stroke="#000" stroke-linecap="round" stroke-miterlimit="10" stroke-width="2" d="M11.387,38.271C14.839,39.952,19.658,41,25,41c2.121,0,4.154-0.171,6.057-0.476"/>
  <path fill="none" stroke="#000" stroke-miterlimit="10" stroke-width="2" d="M25 17L25 7M27 7h-4c-1.105 0-2-.895-2-2V3h8v2C29 6.105 28.105 7 27 7z"/>
  <path fill="none" stroke="#000" stroke-linecap="round" stroke-miterlimit="10" stroke-width="2" d="M33.903,34.649C33.963,33.783,34,32.901,34,32c0-5.342-1.048-10.161-2.729-13.613"/>
  <path fill="none" stroke="#000" stroke-linecap="round" stroke-miterlimit="10" stroke-width="2" d="M39.051 37.211C39.654 35.586 40 33.835 40 32c0-8.284-6.716-15-15-15-2.367 0-4.597.563-6.588 1.539M10.03 31.399C10.022 31.6 10 31.797 10 32c0 8.284 6.716 15 15 15 2.095 0 4.088-.432 5.899-1.208"/>
  <path d="M8 13c0 0 2.563 3.496 3.688 4.949C10.563 19.402 8 22.898 8 22.898s3.496-2.563 4.949-3.684c1.453 1.121 4.953 3.684 4.953 3.684s-2.566-3.496-3.688-4.949C15.336 16.496 17.902 13 17.902 13s-3.5 2.563-4.953 3.684C11.496 15.563 8 13 8 13zM13 25c0 0 1.098 1.938 1.797 3.043C14.098 29.117 13 31 13 31s1.91-1.07 3-1.754C17.09 29.93 19 31 19 31s-1.098-1.883-1.797-2.957C17.902 26.938 19 25 19 25s-1.91 1.125-3 1.84C14.91 26.125 13 25 13 25z"/>
  <path fill="none" stroke="#000" stroke-linecap="round" stroke-miterlimit="10" stroke-width="2" d="M16.018,32.752c0.094,5.039,1.109,9.573,2.711,12.861"/>
  <path fill="none" stroke="#000" stroke-miterlimit="10" stroke-width="2" d="M39.872 30.136C36.391 29.444 31.029 29 25 29c-1.256 0-2.473.023-3.66.06M38.613 25.728C35.161 24.047 30.342 23 25 23c-1.055 0-2.087.045-3.094.124"/>
</svg>