<?xml version="1.0" encoding="utf-8"?><svg version="1.1" id="Layer_1" xmlns="http://www.w3.org/2000/svg" xmlns:xlink="http://www.w3.org/1999/xlink" x="0px" y="0px" viewBox="0 0 102.55 122.88" style="enable-background:new 0 0 102.55 122.88" xml:space="preserve"><style type="text/css">.st0{fill-rule:evenodd;clip-rule:evenodd;}</style><g><path class="st0" d="M102.55,122.88H0V0h77.66l24.89,26.44L102.55,122.88L102.55,122.88z M36.37,48.54l32.61-7.47l2.45-0.56l0,2.5 v38.51l0.01,0.09l0.01,0.05l0.02,0.2l0.02,0.16l0.02,0.4l0.01,0.09v0.06l-0.01,0.02c-0.01,0.62-0.11,1.25-0.28,1.84 c-0.17,0.59-0.42,1.16-0.72,1.69c-1.47,2.57-4.51,4.69-8,5.29c-0.68,0.12-1.33,0.17-1.95,0.17c-1.88,0-3.59-0.51-4.91-1.39 c-1.44-0.97-2.43-2.38-2.73-4.09h0v-0.01c-0.06-0.35-0.09-0.71-0.09-1.06v-0.06l0.01-0.02c0.01-0.62,0.11-1.25,0.28-1.84 c0.17-0.59,0.42-1.16,0.72-1.69c1.47-2.57,4.51-4.69,8-5.29l0.05-0.01l0.49-0.07l0.11-0.01L62.97,76l0.09-0.01l0.47-0.02l0.05,0 V56.83l-21.38,6.14v26.32l0.01,0.13v0.08l0.01,0.23l0.01,0.05v0.06l-0.01,0.02c-0.01,0.71-0.12,1.42-0.32,2.1 c-0.2,0.66-0.48,1.31-0.83,1.93c-1.71,2.99-5.25,5.46-9.3,6.16c-0.78,0.13-1.54,0.2-2.26,0.2c-2.18,0-4.14-0.58-5.66-1.6 c-1.64-1.1-2.76-2.7-3.1-4.64c-0.07-0.4-0.1-0.8-0.1-1.2v-0.06l0.01-0.02c0.01-0.71,0.12-1.42,0.32-2.1 c0.2-0.66,0.48-1.32,0.83-1.93c1.71-2.99,5.24-5.46,9.3-6.16l0.02,0l0.18-0.03l0.02-0.01c0.21-0.03,0.49-0.07,0.87-0.1 c0.28-0.03,0.57-0.05,0.86-0.05l0.01,0c0.45-0.01,0.89,0.01,1.32,0.04l0-33.86H36.37L36.37,48.54z M96.13,115.98V30.44H73.45V5.91 H6.51v110.07H96.13L96.13,115.98z"/></g></svg>