<svg xmlns="http://www.w3.org/2000/svg" viewBox="0 0 24 24"><path d="M9,0C4.029,0,0,4.029,0,9s4.029,9,9,9s9-4.029,9-9S13.971,0,9,0z M9,1.751c1.39,0,2.037,0.345,2.037,1.441 c0,1.096-1.612,2.127-2.037,2.127c-0.427,0-2.039-1.031-2.039-2.127C6.961,2.096,7.61,1.751,9,1.751z M2.991,9.299 c-1.043-0.338-1.172-1.06-0.744-2.381c0.429-1.323,0.956-1.834,2-1.497c1.04,0.338,1.527,2.189,1.394,2.594 C5.511,8.42,4.034,9.636,2.991,9.299z M7.345,14.868c-0.602,0.918-1.332,0.856-2.498,0.097c-1.161-0.759-1.516-1.402-0.918-2.319 c0.598-0.919,2.51-0.902,2.867-0.669C7.154,12.209,7.94,13.956,7.345,14.868z M9,10.35c-0.746,0-1.35-0.604-1.35-1.35 S8.254,7.65,9,7.65c0.747,0,1.35,0.604,1.35,1.35S9.747,10.35,9,10.35z M13.231,14.844c-1.132,0.803-1.861,0.899-2.494,0.005 c-0.636-0.893,0.083-2.667,0.427-2.912c0.348-0.249,2.261-0.339,2.893,0.548C14.692,13.381,14.365,14.038,13.231,14.844z M15.005,9.299c-1.042,0.337-2.519-0.879-2.649-1.284c-0.134-0.405,0.354-2.256,1.393-2.594c1.045-0.337,1.572,0.174,2,1.497 C16.177,8.238,16.048,8.961,15.005,9.299z"/><path d="M21,19.489c0-1.499,0.618-2.416,1.335-3.479c0.78-1.157,1.664-2.468,1.664-4.548 c0-3.251-3.609-6.168-6.73-8.084c0.711,1.044,1.227,2.23,1.502,3.505c1.808,1.433,3.228,3.054,3.228,4.579 c0,3.352-2.999,4.243-2.999,8.027c0,3.204,3.535,4.411,3.686,4.46l0.629-1.898C23.291,22.043,21,21.236,21,19.489z"/></svg>