<?xml version="1.0" encoding="UTF-8" standalone="no"?>
<svg
   version="1.1"
   id="Layer_1"
   x="0px"
   y="0px"
   viewBox="0 0 95.210001 95.21"
   xml:space="preserve"
   sodipodi:docname="folder-music-icon.svg"
   width="95.209999"
   height="95.209999"
   inkscape:export-filename="folder-music-icon.png"
   inkscape:export-xdpi="47.74"
   inkscape:export-ydpi="47.74"
   inkscape:version="1.2.2 (b0a8486541, 2022-12-01)"
   xmlns:inkscape="http://www.inkscape.org/namespaces/inkscape"
   xmlns:sodipodi="http://sodipodi.sourceforge.net/DTD/sodipodi-0.dtd"
   xmlns="http://www.w3.org/2000/svg"
   xmlns:svg="http://www.w3.org/2000/svg"><defs
     id="defs9" /><sodipodi:namedview
     id="namedview7"
     pagecolor="#ffffff"
     bordercolor="#666666"
     borderopacity="1.0"
     inkscape:showpageshadow="2"
     inkscape:pageopacity="0.0"
     inkscape:pagecheckerboard="0"
     inkscape:deskcolor="#d1d1d1"
     showgrid="false"
     inkscape:zoom="14.021821"
     inkscape:cx="50.991949"
     inkscape:cy="48.317546"
     inkscape:window-width="3840"
     inkscape:window-height="2137"
     inkscape:window-x="0"
     inkscape:window-y="264"
     inkscape:window-maximized="1"
     inkscape:current-layer="Layer_1" /><g
     id="g4" /><path
     id="path3155"
     d="M 16.349609,0 C 14.979611,0 13.869141,1.1104701 13.869141,2.4804688 V 8.4003906 H 9.4609375 c -1.3699986,0 -2.4804687,1.1104701 -2.4804687,2.4804684 v 9.859375 h -4.5 c -0.09,0.01 -0.1697658,0.0095 -0.2597657,0.01953 -1.35999862,0.139999 -2.35093734,1.360704 -2.21093747,2.720703 l 6.72070317,64 c 0.2299997,2.109998 1.1290639,4.048986 2.5390624,5.458984 1.3999988,1.389999 3.2696898,2.259766 5.4296878,2.259766 h 63.490234 c 2.149998,0 3.98133,-0.858283 5.361328,-2.238281 1.399999,-1.399999 2.309844,-3.330159 2.589844,-5.410157 l 8.679687,-63.810547 c 0.04,-0.159999 0.06055,-0.339531 0.06055,-0.519531 0,-1.369999 -1.11047,-2.480469 -2.480468,-2.480469 h -4.53125 v -9.859375 c 0,-1.3699983 -1.108517,-2.4804684 -2.478516,-2.4804684 H 59.089844 V 2.4804688 C 59.089844,1.1104701 57.979374,0 56.609375,0 Z m 2.480469,4.9707031 h 35.300781 v 5.9199219 c 0,1.369999 1.108517,2.478516 2.478516,2.478516 h 26.300781 v 6.310547 l -70.970703,1.050781 v -7.361328 h 4.410156 c 1.369999,0 2.480469,-1.108517 2.480469,-2.478516 z M 5.2304688,25.710938 h 4.2304687 l 80.0996095,0.0098 -8.320313,61.189453 c -0.139999,1.019999 -0.549922,1.930782 -1.169922,2.550782 C 79.580313,89.950937 78.949218,90.25 78.199219,90.25 h -63.5 c -0.759999,0 -1.429688,-0.310547 -1.929688,-0.810547 -0.599999,-0.609999 -0.999609,-1.478985 -1.099609,-2.458984 z m 42.3691402,5.669921 c -7.439992,0 -14.178833,3.018677 -19.048828,7.888672 -4.869995,4.879995 -7.890625,11.620555 -7.890625,19.060547 0,7.439993 3.01063,14.170786 7.890625,19.050781 4.869995,4.869996 11.608836,7.888672 19.048828,7.888672 7.449993,0 14.180552,-3.008677 19.060547,-7.888672 4.869995,-4.869995 7.890625,-11.610788 7.890625,-19.050781 0,-7.449992 -3.01063,-14.180552 -7.890625,-19.060547 -4.879995,-4.869995 -11.620554,-7.888672 -19.060547,-7.888672 z m 0.0059,4.71875 c 6.129994,0 11.688988,2.48977 15.708984,6.509766 4.029996,4.019996 6.509766,9.580944 6.509766,15.710937 0,6.129994 -2.48977,11.688989 -6.509766,15.708985 -4.019996,4.019996 -9.56899,6.509765 -15.708984,6.509765 -6.129994,10e-7 -11.690942,-2.489769 -15.710938,-6.509765 -4.019996,-4.019996 -6.509765,-9.568991 -6.509765,-15.708985 0,-6.129993 2.489769,-11.690941 6.509765,-15.710937 0.394957,-0.394957 0.804914,-0.774163 1.228516,-1.138672 3.887959,-3.345583 8.945669,-5.371094 14.482422,-5.371094 z m 10.628906,7.679688 -17.638672,4.041015 h -0.480469 v 17.810547 c -0.249999,-0.05 -0.511016,-0.09133 -0.791015,-0.111328 -0.46,-0.03 -0.949219,-0.0099 -1.449219,0.08008 -1.349999,0.23 -2.570938,0.870939 -3.460938,1.710938 -0.919999,0.859999 -1.478515,1.939063 -1.478515,3.039062 0,0.17 0.01883,0.349532 0.04883,0.519532 0.15,0.839999 0.631563,1.531719 1.351563,2.011718 0.689999,0.47 1.599376,0.728516 2.609374,0.728516 0.35,0 0.710079,-0.03961 1.080079,-0.09961 1.349998,-0.23 2.568985,-0.868986 3.458984,-1.708985 0.919999,-0.869999 1.480469,-1.950782 1.480469,-3.050781 -0.01,-0.03 -0.0098,-0.190234 -0.0098,-0.240234 V 54.240234 l 12.458984,-3.580078 v 11.529297 c -0.149999,-0.02 -0.299218,-0.0293 -0.449218,-0.0293 -0.32,0 -0.660001,0.02008 -1,0.08008 -1.139999,0.19 -2.169454,0.72922 -2.939453,1.449219 -0.78,0.729999 -1.259766,1.649845 -1.259766,2.589844 0,0.15 0.0091,0.301172 0.03906,0.451172 0.119999,0.719999 0.540391,1.30875 1.15039,1.71875 0.59,0.399999 1.360704,0.621093 2.220703,0.621093 0.29,0 0.600157,-0.03008 0.910157,-0.08008 1.139998,-0.199999 2.179688,-0.741172 2.929687,-1.451172 0.779999,-0.729999 1.259766,-1.649844 1.259766,-2.589843 0,-0.08 2.34e-4,-0.169766 -0.0098,-0.259766 l -0.03125,-0.21875 z"
     sodipodi:nodetypes="sscssccccccsssccsscsscsssccssccccsscccccssscccscssssscsscsssssssscccccccsccscccscccsccsccsccsccc" /></svg>
