<svg xmlns="http://www.w3.org/2000/svg" viewBox="0 0 26 26">
  <path d="M19,2c0.552,0,1,0.448,1,1v19c0,0.552-0.448,1-1,1H7c-0.552,0-1-0.448-1-1V3c0-0.552,0.448-1,1-1H19 M19,0 H7C5.344,0,4,1.344,4,3v19c0,1.656,1.344,3,3,3h12c1.656,0,3-1.344,3-3V3C22,1.344,20.656,0,19,0L19,0z"/>
  <path d="M9 9C8.449 9 8 8.551 8 8V6c0-.551.449-1 1-1l0 0c.551 0 1 .449 1 1v2C10 8.551 9.551 9 9 9L9 9zM9 18c-.551 0-1-.449-1-1v-3c0-.551.449-1 1-1l0 0c.551 0 1 .449 1 1v3C10 17.551 9.551 18 9 18L9 18zM7 26c-.551 0-1-.448-1-1v-.469h3V25c0 .552-.449 1-1 1H7zM18 26c-.551 0-1-.448-1-1v-.469h3V25c0 .552-.449 1-1 1H18zM5 10H21V12H5z"/>
</svg>