<svg xmlns="http://www.w3.org/2000/svg" width="26" height="26" viewBox="0 0 26 26">
  <path d="M16.379 3.048c.004.002.019.011.022.013l.13.062c.022.013.066.019.088.015l.059.092c.031.039.031.039.316.133h.011c.002 0 .005 0 .007 0 .01 0 .021 0 .027-.002.03-.005.057-.023.07-.051.016-.029.021-.047.01-.076h.09c.005 0 .009 0 .014 0 .037-.006.076-.035.088-.071.014-.04-.008-.099-.041-.126-.013-.009-.016-.012-.122-.063.014-.042-.006-.073-.077-.192-.005-.006-.012-.013-.019-.019-.031-.028-.039-.032-.173-.073-.009-.002-.018-.004-.027-.004-.008 0-.029 0-.037.001l-.132.027c-.013.003-.024.009-.035.016L16.6 2.753c-.005-.003-.01-.005-.017-.007-.013-.004-.043-.01-.058-.007-.029.003-.05.016-.065.029h-.146c-.038 0-.079.024-.096.058-.008.014-.012.029-.012.045C16.207 2.937 16.227 2.949 16.379 3.048zM24.771 11.975l-.144-.533c.009-.002.017-.006.025-.01.035-.02.055-.06.049-.1-.372-2.631-1.644-5.086-3.581-6.918-.577-.53-1.205-1.005-1.865-1.41C19.25 3 19.245 2.995 19.24 2.992l-.064-.037c-.001-.001-.003-.002-.004-.003-.079-.048-.157-.097-.236-.14-.01-.006-.02-.01-.029-.012-.016-.009-.033-.02-.051-.029-.037-.021-.072-.043-.082-.049-.002 0-.004-.002-.006-.003l-.04-.022c-.003-.001-.007-.004-.011-.005-.02-.012-.038-.021-.057-.03l-.018-.006c-.005-.006-.02-.015-.025-.018-.012-.008-.033-.012-.049-.014-.007-.003-.014-.006-.019-.009l-.066-.034c-.009-.004-.017-.007-.025-.008C18.45 2.571 18.443 2.57 18.436 2.57h-.001l-.038-.018c-.005-.002-.01-.004-.016-.006s-.015-.004-.021-.005c-.048-.007-.087.019-.104.06-.018.041-.005.089.03.116.027.022.059.039.09.056l.024.013c.019.013.019.013.28.149.017.009.016.01.121.048l.001.001c.009.002.017.004.024.004C18.836 2.992 18.842 2.995 18.85 3c.008.006.029.015.041.018.002.001.004.001.004.001l.171.101c.003.008.009.016.015.023.004.004.014.015.019.018l.046.037c.088.068.193.15.277.227 0 0 .003.002.005.003-.012.011-.021.024-.026.038-.016.039-.005.082.025.109l.041.037c-.014-.006-.027-.011-.043-.018l-.207-.151c-.005-.004-.01-.007-.014-.011-.008-.023-.039-.063-.15-.197l.005-.016c.004-.012.005-.025.004-.038-.003-.026-.032-.065-.054-.083-.027-.021-.027-.021-.229-.113-.037-.011-.088-.001-.113.025-.038-.004-.065.009-.087.031-.033.033-.037.086-.01.125.058.084.131.146.201.209.031.027.064.055.092.083.021.022.036.034.07.048.01.056.049.101.076.133.011.012.021.023.036.045.025.033.025.033.438.249.012.004.04.009.053.009s.026-.004.039-.009l.041-.019c.008.006.02.013.035.021-.018.021-.027.047-.025.076l.003.037-.192-.104c-.042-.021-.092-.013-.123.023-.016.019-.023.042-.022.065-.041-.019-.083-.036-.122-.054-.051-.021-.1-.043-.15-.067-.006-.002-.025-.009-.033-.011l-.219-.037c-.015-.002-.044.002-.061.008-.007.002-.015.006-.021.01l-.123-.037-.14-.077c-.006-.003-.033-.012-.039-.013L18.19 3.721c-.007-.001-.021-.004-.028-.004h-.136c-.018 0-.047.013-.062.022-.02.011-.033.028-.04.048l-.022.057-.096.022c-.022.005-.05.028-.064.048-.008.012-.014.025-.017.041l-.034.059c-.014.014-.023.032-.027.052l-.049.065c-.01.013-.02.041-.023.058-.002.013-.002.024 0 .037l.012.059L17.566 4.67c-.001.007.001.02.003.032-.009.005-.017.013-.023.021L17.33 4.988c-.027.033-.029.082-.004.117l.299.444.043.099c.006.015.016.027.027.037.07.06.173.074.255.088.011 0 .021.002.032.004l-.02.166c-.004.027.004.055.023.076l.089.104c.005.012.009.024.015.035l-.156.053c-.012.005-.025.012-.035.021-.004.004-.018.018-.021.022l-.072.092c-.021.001-.043.011-.061.026l-.06.056c-.007.007-.021.026-.025.034-.003.004-.01.021-.012.025l-.03.07.015-.093c.001-.005 0-.034 0-.039-.008-.045-.008-.046-.565-.56L17.06 5.74c-.001-.006-.007-.033-.008-.039L17.04 5.67c-.002-.006-.011-.029-.015-.035-.023-.041-.023-.043-.205-.127l-.022-.057c-.028-.051-.065-.074-.13-.078H16.53c-.096.009-.096.009-.178.424-.001.007-.002.023-.002.03 0 .016.003.03.009.043.009.017.018.033.027.05H16.37c-.016-.005-.03-.005-.038-.005-.009 0-.041.005-.049.008-.022.005-.043.015-.064.034-.008.004-.016.007-.025.01-.013.006-.025.01-.051.023-.006.004-.02.014-.023.018l-.01.007c-.057 0-.078.021-.161.107-.015.024-.025.071-.019.099l.027.113c.012.031.023.046.063.074-.006.006-.01.014-.012.018-.006.01-.009.019-.012.029l-.035.18c-.003.036.01.072.035.1.021.022.072.055.138.043l.266-.055c.006-.002.021-.006.026-.008l.228-.105c.011-.006.021-.011.027-.018.003.014.007.027.011.043.002.004.004.006.006.01L16.662 6.67c-.009.007-.018.016-.024.027-.004.005-.015.023-.018.029l-.05.131c-.008.037 0 .074.022.105.024.033.064.055.12.06h.088c.002 0 .006-.001.009-.001L16.771 7.14c-.002.01-.004.02-.004.03 0 .006.001.025.002.032.008.038.018.082.027.12.006.015.04.059.051.069.018.021.043.031.07.032.061.002.111.003.16.003L17.27 7.59l-.014.078c-.001.008.002.041.002.049l.025.112c-.091-.017-.102-.019-.467-.066-.004-.001-.008-.001-.01-.001-.031-.006-.051-.01-.176-.032-.014-.003-.027-.003-.04.001l-.044.013c-.029.008-.054.028-.065.058-.006.012-.013.025-.021.041l-.067.014c-.024.004-.045.019-.06.038C16.329 7.9 16.32 7.91 16.313 7.918c-.02.021-.028.053-.024.08.02.126.044.294.062.424l-.076.369c0 .008 0 .025.001.032.002.013.003.024.006.056.003.023.015.047.033.063l.059.055.094.256c.025.061.1.096.168.084l.176-.035.079.088-.602.518c-.01.008-.028.037-.032.047-.006.008-.009.017-.011.025l-.097.414-.428.307-.197.08c-.023.01-.043.027-.054.051-.081.182-.214.4-.331.594-.05.084-.098.164-.148.253l-.234.513c-.006.014-.01.029-.008.045.004.059.004.088.004.12 0 .014.003.028.01.041.001.005.012.028.015.031l.062.099.068.484-.299.592c-.02.037-.013.084.018.114l.125.126c-.001.059-.002.119-.004.18-.002.01-.004.021-.003.033l.003.045c0 .019.005.036.016.053l.094.146.143.172.309.441c.008.011.018.02.027.026l.187.144.145.182c.004.003.014.015.018.018l.052.042c.002.002.018.016.02.018l.025.021c.008.007.022.011.033.015l.438.257.143.124c.015.012.032.02.051.022.005.001.027.003.033.003.07 0 .143-.03.199-.057l.326-.055h.506c.004 0 .029-.002.033-.003l.443-.048c.012.002.023.002.033 0l.06-.011c.011-.002.021-.005.03-.011l.186-.104.197-.003.129-.029.105.296c.016.042.059.072.102.065l.348-.027.14.194.022.057-.27.57c-.012.025-.013.055-.002.08l.23.581.047.128.01.117c0 .002.003.024.003.025.001.015.013.041.02.053.005.016.011.031.016.046.007.017.013.032.017.054l.016.074-.054.182-.128.686-.207.186-.115.273-.061.024c-.008.003-.037.023-.045.029-.014.011-.023.024-.031.04-.053.131-.102.246-.15.363-.004.01-.008.039-.008.049-.002.01 0 .021.002.031l.063.254c-.109.405-.25.865-.361 1.177-.002.005-.006.019-.006.024l-.015.077-.087.231c-.04.083-.057.113-.129.25l-.098.094c-.059.066-.105.158-.146.239l-.034.065c-.014.024-.016.054-.006.081.01.026.03.048.058.058.061.023.109.023.153.023.012 0 .022-.002.034-.006.037-.014.08-.037.119-.059l.026-.016c.163-.031.374-.073.558-.113l.33-.152c.006-.002.019-.008.023-.011l.521-.362c.004-.002.007-.006.01-.009l.015-.009c.062-.042.198-.137.236-.169l.263-.281.11-.108.077-.051h.055c.013 0 .025-.004.037-.008.055-.023.1-.065.136-.102l.312-.317c.007-.007.014-.015.018-.024l.186-.352.032-.049h.02c.015 0 .028-.004.041-.01.054-.024.097-.071.13-.109l.064-.053c.004-.004.006-.007.01-.011.139-.097.297-.217.395-.292h.02c.018 0 .035-.004.052-.014l.001-.001c-.02.024-.041.053-.064.083-.006.006-.022.029-.027.037l-.136.233-.263.229c-.02.022-.02.022-.344.497-.025.043-.027.091-.029.15-.003.039.016.076.049.095l.004.003c.021.012.045.015.07.012.006-.002.021-.006.027-.009l.205-.09c.022-.011.121-.099.348-.349.016.012.032.02.045.024s.026.009.041.009h.001c.005 0 .011 0 .017-.002.05-.008.086-.05.086-.057.042-.047.08-.096.116-.146l.04-.055c.015-.02.051-.07.021-.129-.006-.013-.015-.023-.025-.032.066-.077.141-.163.219-.257-.007.014-.014.031-.014.051 0 .027.021.063.041.081.004.003.016.014.02.017.025.02.061.025.092.014.032-.012.032-.012.174-.181.027-.038.03-.053.051-.136.002-.008.002-.02.002-.027 0-.025-.01-.051-.029-.069-.029-.032-.079-.036-.118-.017-.013.008-.02.012-.042.039.021-.033.043-.066.064-.099.006-.001.012-.003.018-.005.037-.012.053-.025.084-.068l.335-.584c.015-.03.015-.035.035-.154.007-.037-.011-.075-.041-.098-.063-.044-.104-.034-.138-.013-.016.01-.022.015-.113.124.017-.064-.019-.107-.045-.123-.008-.004-.016-.008-.025-.011-.031-.009-.064-.01-.094-.01h-.029c0 0-.014 0-.023 0 .009-.019.018-.038.027-.057.017-.032.033-.067.049-.103l.032-.065c.006-.013.01-.027.011-.042v-.051l.151-.417.026-.126.13-.215.051-.052c.009-.009.017-.02.021-.03.043-.102.067-.174.083-.227l.126-.202.077-.109c.017-.008.034-.021.044-.036l.363-.552.09-.041c.021-.009.039-.026.049-.048l.23-.491c.003-.005.006-.011.007-.017.104-.221.216-.51.224-.546l.047-.208c.052-.229.11-.49.141-.684.008-.018.01-.037.006-.055l-.018-.109c-.006-.033-.029-.062-.06-.074-.031-.014-.067-.01-.095.01l-.148.106c-.051.036-.102.073-.152.108-.004-.01-.01-.02-.018-.027l-.009-.008.006-.066c0-.002-.001-.014-.003-.021.01-.002.017-.006.024-.009.006-.003.017-.01.022-.014l.308-.245c.01-.009.021-.025.028-.037l.21-.375c.007-.01.011-.023.012-.036.005-.042.008-.073.009-.1.02-.012.033-.028.041-.05l.105-.275c.002-.003.005-.021.006-.025l.012-.129c.025-.244.053-.521.06-.756C24.774 11.991 24.773 11.982 24.771 11.975zM23.678 13.135l-.006.246c-.011-.021-.029-.037-.051-.045-.004-.002-.007-.003-.009-.004l-.047-.386-.004-.026c-.001-.002-.008-.021-.009-.023l-.027-.116C23.58 12.904 23.633 13.026 23.678 13.135zM19.689 9.43c.012.035.029.074.048.112.01.021.021.042.033.072.035.062.089.073.104.076l.021-.097-.02.097c.012.003.023.003.034.001.062-.009.071-.024.173-.18.006-.01.012-.021.014-.031.005-.017.008-.041.006-.056-.004-.024-.01-.044-.021-.06.045-.018.075-.061.078-.117V9.079c.026-.007.049-.026.061-.052l.094-.193c.014-.027.014-.06 0-.087l-.024-.05h.015c.023 0 .045-.008.062-.021l.028.053c.006.011.012.02.021.027s.018.015.034.027c.016.012.033.02.053.022l.121.164c.014.02.035.033.059.038.012.003.023.005.035.007.001.003.003.008.005.011.023.041.05.092.076.139l.038.068c.008.016.027.033.043.043l.023.014c.017.012.035.018.056.018h.091c-.002.012-.001.025 0 .039.006.022.006.022.066.135.036.057.036.057.445.139h.004c.004 0 .007 0 .01 0 .117-.012.113-.099.102-.269l.034.032c.024.023.058.034.092.025L22 9.357c.014-.003.025-.008.037-.017l.014.007c-.014.017-.023.035-.027.051-.008.047.011.1.051.137.01.009.01.009.16.096.007.004.016.008.023.01l.011.003c.021.005.057-.001.077-.009.016-.007.029-.018.039-.029l.051-.064c.012.041.022.082.033.123l-.018.398-.259-.08c-.042-.012-.087.004-.11.039l-.07.105-.375-.145c-.012-.004-.025-.009-.037-.006-.06.002-.111.002-.158.002l-.03-.048c-.016-.024-.04-.041-.068-.046-.128-.02-.22-.02-.317-.02-.012 0-.024.002-.035.006-.006.002-.025.011-.03.014l-.097.06c-.025.015-.041.038-.046.066l-.032.177-.431-.248c-.005-.002-.032-.012-.036-.014l-.465-.111-.148-.054c.011-.018.017-.038.016-.06C19.715 9.602 19.702 9.512 19.689 9.43zM18.828 6.018l.039-.012c.043-.014.072-.055.07-.1l-.012-.22.037-.085.052-.232c.002-.01.002-.018.002-.027l.176.076c.021.008.042.01.063.004.019.064.043.104.069.146.005.012.014.02.022.027.01.008.021.016.033.022-.007.021-.008.043 0 .063l.073.205c-.075-.021-.177 0-.257.02-.021.007-.045.013-.064.017-.006.001-.018.004-.023.007l-.246.095c-.01.004-.018.009-.025.015l-.05-.008C18.802 6.026 18.815 6.021 18.828 6.018zM21.324 7.912c.014-.016.023-.034.028-.055l0 0c.006-.018.007-.042.007-.063l.01-.134c.006.01.016.019.026.029.206.187.206.187.257.187.02 0 .033-.002.049-.012.018-.008.031-.019.043-.033.021-.029.039-.055.055-.078.008.008.017.016.027.023l.324.225.137.105-.146.021c-.139-.096-.146-.101-.186-.101-.012 0-.031.005-.041.009-.066.023-.143.052-.219.081-.064.024-.129.048-.187.069l-.063-.004-.12-.133c-.003-.005-.005-.01-.007-.016.008-.016.013-.037.014-.063L21.324 7.912zM21.295 8.967c-.002-.014-.008-.027-.017-.039L21.258 8.9c.012.014.025.027.037.041.023.025.047.051.055.056l.104.214c-.055-.004-.113-.008-.168-.01l-.051-.004.044-.041c.021-.019.03-.045.03-.072C21.309 9.031 21.303 9.002 21.295 8.967zM17.357 9.326l.219-.033c.01-.001.018-.004.027-.008l.021-.01c.01-.004.018-.01.024-.016l.188-.164.043-.048c.027-.032.055-.063.086-.091.027-.027.037-.066.025-.104l-.079-.24.018-.052.089-.038h.031c.012 0 .024-.002.035-.006.002 0 .025-.01.027-.011l.111-.055c.03-.015.051-.044.055-.076l.021-.181.014-.024.281.04c.02 0 .041-.005.057-.016l.14-.092h.028c-.008.01-.016.02-.025.03-.012.015-.015.014-.018.032-.003.009-.012.034-.002.096.01.035.018.072.025.106.002.009.005.017.009.024.009.018.019.031.029.042-.005.019-.007.041-.003.072l.014.058c.014.063.029.127.044.194.02.083.087.1.115.106.017.004.033.004.05 0 .004-.001.021-.005.024-.007l.142-.056c.052-.017.086-.063.086-.117 0-.021 0-.021-.07-.238-.014-.041-.043-.07-.086-.086.008-.025.017-.055.026-.09.001-.004.001-.008.003-.012l.178.176c.006.007.025.02.033.024l.37.205.036.026.034.082-.241-.04c-.021-.003-.071.016-.09.024-.04.018-.063.059-.059.103.005.032.01.056.019.1.003.017.011.032.021.044.07.088.183.158.281.221.011.006.02.012.029.018-.002 0-.004 0-.006 0-.064.01-.108.061-.109.131-.01-.045-.018-.087-.025-.128-.004-.022-.018-.043-.035-.058l-.082-.064-.165-.094c-.022-.013-.046-.019-.071-.019-.012 0-.039.005-.049.009l-.15.051-.913.055c-.007.001-.026.005-.033.008L17.561 9.35h-.219C17.348 9.342 17.352 9.334 17.357 9.326zM22.294 19.107l-.205.125c-.002.001-.003.002-.005.004l.217-.344c.023.014.051.018.073.022.008.003.017.003.026.003h.002c.005 0 .01 0 .015 0 .017-.003.027-.004.04-.014C22.411 18.963 22.357 19.029 22.294 19.107z"/>
  <path d="M19.063 16.447c.022-.076.009-.16-.037-.222-.048-.065-.128-.102-.224-.102-.004 0-.022 0-.027.001-.143.02-.256.113-.285.24-.023.104.015.205.101.263.046.032.101.048.159.048C18.895 16.676 19.027 16.579 19.063 16.447zM14.668 4.055c.039 0 .072-.022.089-.057l.037-.076c.022-.045.045-.093.063-.133.006-.016.01-.034.007-.053-.003-.027-.005-.045-.023-.063.022-.015.039-.039.044-.067l.051-.327c.002-.017 0-.036-.008-.054.012-.025.012-.055-.001-.082-.032-.067-.063-.131-.095-.191.018-.006.035-.021.047-.039l.043.013c.033.013.069.007.098-.017l.085-.071c.021-.018.033-.044.034-.071 0-.004 0-.006 0-.01 0-.021-.006-.047-.018-.063-.057-.081-.164-.104-.249-.123-.026-.007-.052-.012-.092-.022-.004 0-.022-.002-.027-.002-.036 0-.071.008-.105.02-.005-.019-.017-.037-.032-.051-.021-.018-.035-.041-.053-.07-.021-.039-.051-.086-.1-.125-.084-.069-.194-.087-.29-.102-.169-.021-.345-.005-.511.011-.063.005-.125.003-.184.001-.067-.004-.137-.006-.193 0-.037.003-.066.021-.092.031-.025-.01-.079-.025-.119-.016-.115.029-.227.117-.334.2-.023.019-.048.036-.07.054-.002-.004-.004-.006-.008-.01-.017-.031-.049-.05-.084-.051-.092-.002-.112-.008-.139-.041-.006-.01-.012-.024-.017-.041-.016-.049-.046-.139-.169-.162-.004 0-.029-.002-.035-.002-.033 0-.063.007-.088.014 0 0-.002 0-.004 0 .002-.001.002-.002.003-.005.001-.046.001-.154-.157-.196-.02-.005-.041-.008-.066-.008S11.789 2 11.73 2.039c-.054.035-.07.078-.07.095-.014.012-.025.018-.049.027-.021.009-.047.02-.068.036-.037.023-.064.053-.092.082-.029.031-.061.065-.104.058-.026-.012-.055-.011-.08.001-.08.035-.111.083-.12.128-.036.034-.085.091-.097.147-.017.01-.039.023-.07.043L10.972 2.53c-.011-.05-.075-.091-.117-.086-.042.004-.079.024-.114.072l-.164.106c-.008.005-.027.021-.034.027l-.165.184c-.025.029-.035.086-.02.12.001.003.002.005.003.007-.001.002-.003.004-.005.004-.019-.027-.05-.037-.148-.059 0 0 .002 0 .003-.002.001 0 .021-.027.021-.028l.071-.129c.017-.027.021-.071.007-.101-.016-.036-.064-.059-.104-.063C10.162 2.585 10.16 2.587 10 2.701 9.994 2.705 9.978 2.725 9.973 2.73l-.08.137c-.01-.006-.021-.01-.033-.012.012-.02.021-.045.02-.064C9.876 2.74 9.846 2.715 9.781 2.666c-.02-.012-.045-.018-.07-.012C9.692 2.656 9.682 2.66 9.603 2.697L9.587 2.69c-.058-.028-.13.013-.153.032-.02.019-.039.038-.056.056C9.377 2.775 9.376 2.772 9.375 2.77 9.356 2.73 9.311 2.705 9.269 2.709L8.943 2.743C8.938 2.744 8.919 2.75 8.915 2.752L8.686 2.844C8.632 2.867 8.62 2.887 8.563 2.978 8.563 2.979 8.562 2.981 8.562 2.981 8.551 2.98 8.542 2.979 8.532 2.979H8.347c-.009 0-.018.002-.026.004C8.316 2.984 8.293 2.99 8.289 2.991L7.906 3.15C7.9 3.153 7.879 3.166 7.873 3.17L7.648 3.313C7.613 3.338 7.596 3.361 7.586 3.393 7.576 3.431 7.593 3.475 7.623 3.5c-.011.01-.02.021-.028.035L7.57 3.469C7.561 3.44 7.538 3.42 7.512 3.41c-.004-.013-.01-.023-.019-.034-.024-.03-.067-.046-.106-.03l-.04.012L7.322 3.346c-.014-.008-.053-.01-.068-.01l-.238.04C7.018 3.367 7.02 3.357 7.021 3.348c.012-.046.023-.096.039-.133.018-.045-.002-.1-.043-.125-.019-.012-.04-.017-.063-.015-.08.009-.188.021-.268.03C6.685 3.106 6.66 3.113 6.658 3.113L6.332 3.244C5.797 3.613 5.289 4.025 4.823 4.47 4.816 4.477 4.807 4.494 4.799 4.508L4.578 4.785c-.02.023-.025.053-.02.082L4.483 4.939H4.448C4.397 4.941 4.397 4.941 4.162 5.181 4.15 5.192 4.131 5.211 4.119 5.239c-.018.01-.041.03-.094.075L3.979 5.369C3.953 5.399 3.928 5.431 3.9 5.462 3.896 5.468 3.893 5.477 3.89 5.486 3.879 5.492 3.869 5.5 3.861 5.51 3.819 5.56 3.777 5.612 3.738 5.664 3.715 5.695 3.712 5.737 3.73 5.771L3.697 5.811c-.006 0-.034.005-.049.014C3.619 5.839 3.619 5.839 3.436 6.061 3.434 6.063 3.417 6.086 3.415 6.09L3.395 6.119c-.01.017-.027.055-.067.144L3.289 6.347C3.264 6.35 3.239 6.363 3.223 6.385L3.147 6.479c-.854 1.285-1.439 2.703-1.739 4.225l-.033.395.019.513-.07.542c-.001.014-.001.027.003.041l.057.196c.056.196.119.418.182.593.006.012.021.034.03.045l.244.252c.03.031.079.038.117.018l.13-.067.099.245c0 .002.011.023.011.025.005.01.012.018.02.025l.062.098c.004.008.01.016.017.021l.113.12c.006.004.043.032.049.036l.166.098c0 .004.002.01.004.015l.242.727c.002.005.016.026.02.03l.057.068c.027.033.076.045.115.027l.027-.012.096.111.001.004c.007.024.022.045.044.058.021.013.035.021.049.027.012.005.021.009.03.011l.128.182c.025.037.076.052.12.034l.137-.06c.021-.008.038-.025.048-.045l.051.08c.039.272.089.547.145.82l-.035.182-.055.184-.08.398c-.002.012-.002.025 0 .037 0 .002.006.025.006.029.025.092.053.186.08.275l.009.028c.005.015.013.029.024.041.008.007.018.016.041.036.002.002.004.004.007.007L3.92 17.215c-.011.02-.015.043-.01.065.001.008.008.039.012.046l.199.438c.004.008.01.017.016.023l.393.336.194.291c.003.006.02.025.023.029.009.01.017.02.017.02l0 0c.298.389.727.906.805.962l.543.29c.007.002.013.005.018.006.051.033.105.064.281.166l.055.055c.215.327.527.801.783 1.156.57.721.724.914 1.451 1.64.004.005.016.015.021.019l.196.139C8.944 22.924 8.973 22.951 9 22.978l.042.042c.007.007.014.012.021.016.038.022.085.035.127.045.006.037.021.049.182.161.028.021.059.032.089.032.001.002.002.003.004.004l.057.086c.012.016.025.027.043.035l.134.058.024.039c.008.011.017.02.027.028.055.037.125.062.188.083l.04.015.002.001c.008.03.029.063.051.08.013.011.027.021.035.026.018.012.034.021.062.027l.102.053c.014.009.051.02.066.02H10.3c.005 0 .011-.002.017-.002l.039.023c.004.003.021.012.025.014l.052.021c.01.022.027.043.052.054l.213.096c.025.012.055.012.08 0 .004-.002.008-.004.011-.006.005.004.011.006.017.01.01.019.026.034.047.043l.192.084c.009.004.019.006.029.007.017.001.031.003.042.003.006.003.013.006.02.006.064.014.096.014.127.014.037 0 .07-.021.087-.053l.018-.003c.034-.005.063-.026.077-.058.014-.032.01-.068-.01-.098 0 0-.001-.001-.002-.002.002.001.005.002.008.004.014.004.049.004.063.002.014-.003.027-.009.039-.017.021-.016.038-.042.043-.069.004-.029-.008-.066-.027-.088l-.086-.1c-.02-.021-.022-.023-.131-.074-.01-.003-.033-.007-.044-.007-.015-.003-.03.005-.044.011-.02.006-.037.005-.053.014-.041.023-.063.083-.047.127.005.018.016.038.032.069l-.15-.05c-.007-.004-.022-.009-.034-.012-.009-.002-.018-.003-.025-.004l-.045-.039c-.006-.006-.021-.016-.027-.02l-.121-.069-.126-.186c-.002-.004-.017-.021-.019-.022-.025-.023-.049-.049-.073-.076-.011-.013-.025-.021-.042-.027l-.127-.043c0-.022-.009-.045-.024-.063-.097-.114-.185-.22-.273-.331-.009-.011-.018-.02-.029-.025l-.027-.016c.024-.03.028-.073.009-.107-.006-.014-.013-.025-.02-.034l.127-.091c.021-.015.039-.053.042-.078.003-.011.003-.021.001-.032l-.033-.209c-.002-.021-.012-.04-.026-.055-.021-.02-.042-.036-.067-.05l.021-.008c.02-.006.048-.031.06-.049.008-.009.014-.02.016-.031l.047-.158.022-.027c.011-.012.017-.026.021-.041l.043-.199.017-.018c.009-.01.021-.035.024-.048.004-.011.006-.024.005-.036l-.005-.105.005-.006c.026-.027.035-.068.021-.104l-.194-.502c.225-.124.501-.273.714-.385.027-.016.047-.042.051-.073l.023-.154c.035-.229.074-.493.109-.702.002-.013 0-.034-.002-.047l-.133-.577.056-.071.096-.036c.013-.005.024-.013.034-.021l.02-.021c.008-.007.015-.016.02-.023l.17-.32c.002-.002.003-.005.004-.008l.192-.344c.007-.012.013-.047.015-.06.001-.01 0-.021-.002-.03l-.106-.541c-.006-.029-.024-.055-.052-.068-.282-.143-.658-.33-.962-.477-.003-.002-.025-.006-.029-.008l-.768-.104-.265-.102L9.059 16.49c-.004-.002-.023-.013-.029-.015l-.066-.026.009-.018c.014-.027.007-.074-.007-.102-.007-.016-.016-.033-.024-.045-.019-.025-.056-.05-.082-.041l-.011.002L8.625 16.06l-.279-.397c-.004-.016-.012-.029-.023-.041l-.029-.034c-.011-.012-.024-.021-.039-.026l-.48-.219-.149-.118c-.021-.017-.048-.024-.075-.021l-.293.039-.359-.338c.021.002.027-.001.041-.006l.025-.01c.034-.014.059-.045.063-.082.008-.074.008-.129.005-.177l.102-.097c.02-.02.03-.045.03-.072V14.41c0-.053-.04-.096-.092-.099-.127-.009-.236-.013-.34-.014 0-.006.001-.012.001-.017 0-.021 0-.023-.041-.14.038-.024.062-.065.062-.113 0-.021 0-.022-.059-.185-.002-.027-.014-.066-.038-.141.014-.009.026-.021.037-.039.03-.054.017-.096-.037-.26-.002-.006-.005-.01-.007-.016.007-.023.008-.05 0-.074.049-.021.082-.066.086-.125 0-.021 0-.021-.053-.193C6.66 12.951 6.628 12.93 6.596 12.92c0-.003 0-.006.001-.01.004-.038-.008-.078-.033-.107-.024-.028-.06-.045-.104-.047H6.426c-.01-.046-.043-.092-.104-.109-.084-.022-.19-.041-.291-.059-.05-.009-.097-.018-.126-.022-.017-.005-.048-.007-.065-.005-.034.008-.062.025-.082.051-.038-.029-.077-.059-.114-.086L5.56 12.463c-.021-.02-.071-.041-.099-.033-.043.004-.078.025-.103.066l-.003-.003-.29-.163-.134-.049c-.017-.01-.032-.014-.068-.023-.014-.004-.037-.004-.053-.001 0 0-.002.001-.004.001H4.73c-.011 0-.021.002-.033.006-.005.002-.027.011-.032.014l-.011.006c0-.002.002-.003.002-.003.002-.006.004-.011.006-.017 0-.002.002-.006.002-.008h.102c.002 0 .005 0 .008 0 .074-.006.12-.065.125-.111.008-.043.008-.043-.078-.256-.025-.057-.092-.09-.147-.074-.024.006-.058.019-.089.065-.021.037-.045.085-.066.128l-.011.023c-.104-.073-.22-.15-.335-.229-.161-.109-.324-.219-.459-.318-.014-.01-.055-.02-.072-.021-.012-.001-.02-.001-.029.002l-.282.06c-.007.002-.021.004-.027.008-.052.019-.054.02-.191.327-.015-.014-.032-.024-.049-.03-.015-.004-.029-.006-.044-.004L2.57 11.892c-.039.005-.07.033-.082.071l-.102.376-.149.027-.123-.345.126-.663.111-.337.101-.158c.112-.175.235-.367.343-.525h.154l.219.209c.031.031.079.037.117.015.09-.051.125-.153.15-.243l.279.095-.033.794c-.002.039.02.076.053.093.084.044.144.044.187.044.024 0 .05-.01.067-.027l.039-.035c.001.01.004.023.004.027l.043.123c.01.035.035.079.121.094h.13c.005 0 .009 0 .011-.001.059-.007.104-.048.116-.098.013-.034.013-.034-.034-.285-.016-.062-.063-.1-.125-.1h-.1l.075-.253c.024-.168.051-.334.081-.498l.242-.417h.021c.015 0 .027-.003.041-.009l.294-.194c.169-.116.349-.239.497-.339.012-.007.021-.017.028-.027C5.498 9.267 5.508 9.252 5.512 9.23c.025-.112.051-.225.08-.334C5.598 8.9 5.604 8.905 5.613 8.913c.041.032.098.029.134-.007L6.17 8.482c.006-.006.019-.02.022-.026L6.25 8.363l.453-.047C6.728 8.313 6.75 8.303 6.767 8.285l.128-.141c.025-.027.032-.066.02-.102l-.01-.026.088-.123h.092c.01 0 .019-.001.027-.004C7.117 7.889 7.146 7.879 7.15 7.877L7.477 7.72l-.02.079c-.008.029 0 .062.02.086l.026.033C7.53 7.95 7.576 7.962 7.613 7.947c.162-.061.36-.137.543-.206l.198-.076C8.368 7.66 8.381 7.65 8.393 7.64l.03-.034C8.429 7.598 8.434 7.589 8.438 7.58h.113c.002 0 .004 0 .004 0 .047-.002.057-.008.189-.104.01-.01.028-.036.033-.049C8.803 7.369 8.784 7.33 8.744 7.287L8.775 7.15c.004-.027-.01-.078-.028-.101C8.723 7.022 8.689 7.011 8.636 7.007 8.579 7.011 8.576 7.011 8.282 7.32L8.209 7.238c.01-.039.021-.078.029-.116H8.24c.025 0 .051-.01.068-.027L8.45 6.959c.022-.021.031-.07.028-.102L8.476 6.833c-.003-.022-.013-.044-.028-.06h.451L8.895 6.775C8.877 6.787 8.837 6.814 8.832 6.869 8.828 6.9 8.837 6.927 8.854 6.951L8.802 7.035c-.015.028-.019.082-.005.11C8.826 7.203 8.846 7.21 9.137 7.26L9.16 7.318c.012.014.039.055.113.059l.1-.002C9.4 7.371 9.416 7.367 9.442 7.346c.021.016.047.025.081.031h.088c.006 0 .013 0 .018-.002.044-.008.044-.008.24-.145.01-.01.037-.035.045-.075.004-.022.008-.046.013-.081 0-.055-.019-.084-.062-.109L9.89 6.924C9.9 6.898 9.904 6.854 9.895 6.83 9.879 6.793 9.863 6.777 9.785 6.74l.161-.131c.041-.037.056-.092.036-.141C9.971 6.439 9.949 6.416 9.918 6.403l.101-.146c.002-.003.004-.006.006-.01.015-.023.02-.053.013-.08C10.027 6.134 10 6.107 9.965 6.1L9.756 6.048c.006-.009.01-.017.014-.026.027-.077.043-.138.059-.194l.008-.026C9.846 5.76 9.83 5.716 9.793 5.692L9.757 5.668C9.76 5.661 9.761 5.654 9.762 5.647l.023-.078c.046-.295.078-.444.08-.455C9.874 5.072 9.857 5.031 9.82 5.009L9.799 4.994C9.84 4.98 9.852 4.967 9.937 4.816c.009.004.017.007.024.01.008.001.035.007.043.007h.063c.06-.002.063-.003.31-.26.019.011.042.019.059.019.05 0 .065-.01.468-.225.007-.002.017-.01.021-.014.02-.017.043-.052.046-.076.008-.049.009-.053-.212-.323l.106-.124c.037-.067.037-.067-.177-.377-.006-.01-.022-.023-.031-.029-.008-.006-.016-.011-.023-.014l-.014-.005c.027-.019.061-.056.132-.133.003-.003.007-.007.009-.011.016.006.031.006.047.002.099-.021.195-.086.281-.143.023-.016.047-.031.068-.044h.037c.008 0 .025-.003.031-.005l.16-.037c.023-.012.045-.029.066-.061l.002.022c.001.017.006.032.014.046 0 0 0 .002.002.003-.008.022-.014.043-.02.065-.004.01-.004.031-.004.041s.003.021.005.029l.024.067c.008.022.039.052.059.063.014.008.029.013.047.013.094.002.182.003.251 0l.092.018L11.945 3.4l-.078.209c-.006.016-.004.049-.002.064.003.021.013.042.027.058-.01.025-.009.055.003.081.009.02.022.043.034.064l.018.033c.006.011.013.021.021.028l-.143.001c-.051.006-.051.006-.268.188-.012.011-.028.039-.035.054-.003.006-.006.015-.007.023L11.48 4.403c-.003.017-.001.033.004.05.008.021.02.039.033.055 0 .004-.001.008-.002.013l-.044.015c-.009.004-.019.009-.026.014-.013.01-.044.03-.057.071-.005.018-.006.036-.002.054L11.5 5.117c.005.021.018.039.033.053.02.016.035.025.05.032.013.005.026.009.039.009h.105l.064.111c.007.012.016.021.027.03.032.024.077.04.124.029l.205-.047c.013-.003.023-.009.033-.015l.149-.145c.14-.146.298-.312.425-.447l.309-.109c.006-.001.03-.016.035-.019l.044-.031.051.016c.008.002.026.005.034.005.052 0 .066-.011.234-.137l.305-.17.164.031c.009.002.018.002.027 0l.049-.008c.191-.07.447-.165.639-.24C14.653 4.064 14.661 4.06 14.668 4.055zM9.013 4.572c.008.012.021.024.036.033L8.911 4.533C8.904 4.529 8.896 4.526 8.888 4.524l.031-.186c.002-.012.002-.022 0-.034l.319-.063c-.016.01-.037.023-.064.04-.002.002-.018.017-.02.019L9.023 4.449C9.013 4.467 8.982 4.517 9.013 4.572zM7.979 4.648c.013-.005.025-.012.035-.021C8.02 4.619 8.029 4.611 8.036 4.605c.019-.014.03-.033.035-.056h.165L8.232 4.58C8.225 4.629 8.254 4.677 8.301 4.69c.064.02.11.02.146.02.012 0 .039-.007.049-.011l.069-.024L8.581 4.68c-.069.068-.13.149-.188.226C8.354 4.957 8.316 5.007 8.279 5.048L8.074 5.123C8.053 5.131 8.035 5.146 8.023 5.164L7.792 5.536l-.47.163c-.025.006-.047.021-.06.043-.009.016-.019.03-.027.045C7.234 5.785 7.233 5.783 7.232 5.781L7.1 5.574 7.025 5.32C7.018 5.291 6.996 5.268 6.967 5.257l.01-.008C6.998 5.232 7.011 5.207 7.013 5.18l.003-.047.321-.233c.108-.042.235-.092.36-.142L7.979 4.648zM9.334 4.206L9.637 3.93c.039.014.084.029.136.046L9.635 4.094C9.631 4.098 9.618 4.109 9.613 4.114L9.544 4.205 9.334 4.206zM9.4 5.068c.037-.037.039-.098.004-.137l-.23-.256C9.168 4.672 9.158 4.664 9.152 4.66L9.063 4.613c.06.029.085.016.303-.019l.033.021L9.379 4.641c-.064.102-.037.12.293.344.002.001.004.002.006.004L9.35 5.166 9.324 5.145 9.4 5.068zM3.134 12.039c.009.008.021.014.032.02l-.02.045c-.012.038-.01.051.008.162.016.047.035.064.073.086.024.014.054.016.08.007.007-.003.024-.009.032-.013-.012.115.032.229.116.289.04.027.086.043.133.043.136 0 .251-.119.271-.275.006-.053 0-.105-.016-.152l.05.046c-.001.021-.001.04-.003.06l-.002.086c.006.053.034.092.082.114.008.004.017.007.025.008.01.002.029.003.04.002l.307-.045c-.001.009-.001.015 0 .021 0 .006.001.011.001.016-.024.031-.028.068-.028.103-.017-.018-.036-.029-.056-.034-.069-.021-.156-.036-.238-.05l-.105-.02-.001.005c-.017-.004-.034-.006-.044-.006-.047.01-.057.021-.148.133-.023.033-.032.072-.025.111.006.037.025.068.047.082.049.042.115.08.174.112l.064.037c.01.007.021.011.033.013l.015.003c.011.002.022.002.034.001.008-.002.029-.007.036-.01l.168-.065c.008-.003.018-.009.024-.015.035-.025.055-.061.059-.115 0-.02 0-.04 0-.067.045.032.152.049.437.096.007.001.025.005.032.005.004 0 .023.002.027.002h.004c.006 0 .006-.001.012-.002H5.34c.004 0 .008-.001.012-.002.022.037.063.061.114.063h.306c.002 0 .004 0 .006 0 .036-.002.066-.017.088-.036.006.005.012.01.016.015.02.017.037.032.062.056.026.02.056.031.087.031.006 0 .041-.006.047-.008l.061-.02V13c.006.052.035.092.085.113-.013.021-.019.045-.021.072 0 .064.001.128.002.192l.002.067c.01.073.059.102.091.114l.002.065c0 0 0 .002.001.004-.013.02-.021.045-.021.074 0 .053.003.106.006.164.004.038.022.072.052.096.001.031.003.063.005.094 0 .003 0 .005.001.008-.016.023-.026.054-.028.09.004.042.006.084.008.126l.002.032c.007.055.049.111.121.121 0 .002 0 .004.001.007l.004.068-.196-.175c-.007-.007-.016-.013-.025-.017l-.367-.079c-.014-.002-.025-.002-.039 0l-.029.006c-.01.002-.018.006-.026.01l-.066.035-.38-.097-.232-.28c-.009-.011-.02-.02-.033-.025l-.027-.014c-.037-.02-.082-.012-.113.018l-.07.068L4.787 13.93c-.027-.016-.057-.03-.08-.044-.03-.017-.066-.017-.097 0l-.451.251c-.009.005-.032.026-.038.034-.008.009-.014.018-.019.028l-.143.33-.132-.091c-.012-.009-.027-.015-.043-.017l-.027-.003c-.004 0-.008-.001-.012-.001-.006 0-.011.001-.016.001l-.276.046-.095-.172.027-.845c.002-.021.004-.046.004-.065 0-.018-.006-.035-.014-.05-.048-.081-.124-.171-.186-.245l-.027-.033c-.006-.008-.034-.027-.043-.033-.01-.006-.021-.012-.033-.014l-.231-.047c0-.002 0-.004 0-.004l.001-.204L3.134 12.039z"/>
  <path d="M14.943,4.998h0.009c0.034,0,0.034,0,0.562-0.23c0.06-0.041,0.059-0.095,0.05-0.132 c-0.007-0.028-0.017-0.056-0.03-0.097c-0.006-0.014-0.013-0.026-0.023-0.037c-0.004-0.003-0.021-0.021-0.024-0.023l-0.212-0.166 c-0.02-0.014-0.059-0.027-0.108-0.029l-0.392,0.07l-0.088-0.055c-0.014-0.007-0.047-0.015-0.061-0.015 c-0.031,0-0.066,0.008-0.273,0.05c-0.044,0.014-0.075,0.045-0.085,0.084c-0.01,0.035,0.007,0.092,0.034,0.117 c0.036,0.033,0.082,0.063,0.125,0.088L14.393,4.7c-0.009,0.025-0.008,0.067,0.004,0.091c0.028,0.057,0.028,0.057,0.518,0.202 C14.924,4.996,14.934,4.998,14.943,4.998z"/>
  <path fill="none" stroke="#000" stroke-linecap="round" stroke-linejoin="round" stroke-miterlimit="10" stroke-width="1.625" d="M13 0.9649999999999999A12.035 12.035 0 1 0 13 25.035A12.035 12.035 0 1 0 13 0.9649999999999999Z"/>
</svg>