<svg xmlns="http://www.w3.org/2000/svg" viewBox="0 0 128 128">
  <path d="M51.7 69.2A7 7 0 1 0 51.7 83.2A7 7 0 1 0 51.7 69.2Z"/>
  <path d="M110.8,21.1l-4-4c-0.4-0.4-0.9-0.8-1.4-1c-2.6-1.4-5.6-0.7-7.4,1.3L90,26.4c-1,1.1-1.5,2.5-1.5,3.8L67.9,50.8c-3.1-2.2-6.7-3.4-10.4-3.4c-4.6,0-8.8,1.8-11.9,5c-0.7,0.7-1.3,1.4-1.8,2.1c-3.3,4.5-8.3,6.7-11.8,7.7c-4.3,1.2-8.2,3.5-11.4,6.7c-7.9,7.9-8.6,20.6-1.7,30.2c6.7,9.4,19,17.9,27.9,17.9h0c7.3,0,14-3.8,18.8-10.8c1.5-2.1,2.4-4.6,3.2-7c1.5-5.2,4.3-9.4,7.9-12.2c0.7-0.6,1.4-1.2,2.1-1.8c3.5-3.5,5.2-7.9,4.9-12.5c-0.1-1.6-1.2-4-2.6-6.4c-2.2-3.8-1.6-8.7,1.5-11.8l15.1-15.1c1.4,0,2.8-0.6,3.9-1.5l9.1-8.1c1.2-1.1,1.9-2.7,2-4.3C112.6,23.9,112,22.3,110.8,21.1z M71.5,77.9c-0.5,0.5-1,0.9-1.5,1.3c-4.7,3.6-8.2,8.9-10.1,15.4c-1,3.3-2.7,6.2-5.1,8.6c-3.2,3.2-6.9,4.8-11.1,4.8c-6.9,0-14.4-4.6-20-12.4c-5.2-7.2-4.7-16.7,1.1-22.5c2.4-2.4,5.5-4.2,8.8-5.1c6.4-1.8,11.6-5.2,15-9.9c0.4-0.5,0.8-1,1.3-1.5c2-2,4.7-3.1,7.6-3.1c2.5,0,5.1,0.8,7.2,2.4c5.9,4.4,9.6,9.7,10,14.3C74.8,73,73.8,75.6,71.5,77.9z M73.2,55.4c-0.2-0.2-0.5-0.5-0.7-0.7l18.8-18.8l0.7,0.7L73.2,55.4z M97.5,33.5C97.5,33.5,97.5,33.5,97.5,33.5l-3.1-3.1l8.1-9.1l4,4L97.5,33.5z"/>
  <path d="M39,80.4c-1.2-1.2-3.1-1.2-4.2,0c-1.2,1.2-1.2,3.1,0,4.2l8.5,8.5c0.6,0.6,1.4,0.9,2.1,0.9s1.5-0.3,2.1-0.9c1.2-1.2,1.2-3.1,0-4.2L39,80.4z"/>
</svg>