<svg xmlns="http://www.w3.org/2000/svg" width="24" height="24" viewBox="0 0 24 24">
  <path d="M9.1,12.1L0,20.9l2.5,2.6c0.2,0.2,4-0.6,5.7-2.3c1.7-1.7,3.6-6.3,3.6-6.3L9.1,12.1z"/>
  <path d="M22.3,2.8c-0.6,2.7-2.6,7.3-8.7,13.5l-3.3-3.4l9.8-9.4C20.9,3.4,21.7,3.2,22.3,2.8 M24,0c0,0-2.1,2.1-4.4,2.1c0,0,0,0-0.1,0C15.5,6,8.4,12.9,8.4,12.9l5.3,5.4C25.3,7,24,0,24,0L24,0z"/>
  <path d="M23.9,0.3c0,0.2,0.1,7.6-8.5,16.2c1-1.4,3-5.7,2.6-8.4c-0.2-1.3,0-2.2,1.5-1.3c2,1.2,1.2-1.3,0.8-3c-0.2-1.1,1-1.6,1.9-2.1C22.3,1.5,23.9,0.5,23.9,0.3z"/>
  <path d="M18 13.2c0 0-1.7 1.8-1.7 2.3 1.5-1.8-1.2 1.7.9 2.5.6.2 1.4-.3 1.3-1.4-.1-1.2-1.5-1.7.3-4.3C19.7 11 18 13.2 18 13.2zM15.9 19.7c0 0-.9 1.5-.9 2.2 0 .5.2 1.1.8 1.1.6 0 .8-.5.8-1.1C16.7 21.3 15.9 19.7 15.9 19.7z"/>
</svg>