<svg xmlns="http://www.w3.org/2000/svg" id="halloween" viewBox="0 0 16 16">
    <path fill="#ffab40" d="M4.41,8.67c0-0.008-0.001-0.014-0.001-0.022c-0.006,0.006-0.01,0.012-0.016,0.018C4.399,8.668,4.405,8.669,4.41,8.67z"/>
    <path fill="none" stroke="#000" stroke-linecap="round" stroke-linejoin="round" stroke-miterlimit="10" d="M5.496,2.5C7.5,2.5,7.5,4.25,7.5,4.25"/>
    <path d="M9.274,3c-1.26,0-1.819,0.553-2.221,0.71C6.65,3.867,6.039,3.779,4.863,3.943C1.619,4.482,2.015,8.736,2.015,8.736C1.999,12.575,5.808,14,6.754,14c0.63,0,0.63-0.297,0.945-0.297c0.315,0,0.63,0.297,1.26,0.297C11.164,14,14,12.097,14,8.326C14,4.226,10.534,3,9.274,3z M11,5l1,2h-1H9L11,5z M9.5,8L8,9.5L6.5,8H9.5z M5,5l2,2H5H4L5,5z M11,12h-1v-1H9v1H7v-1H6v1H5c0,0-1-0.75-1-2h1v1h1v-1h2v1h1v-1h1v1h1v-1h1C12,11.25,11,12,11,12z"/>
</svg>