<svg xmlns="http://www.w3.org/2000/svg" id="halloween" viewBox="0 0 30 30">
    <path d="M17.532,5c-2.517,0-3.596,0.966-4.435,1.265c-0.779,0.3-2.037,0.12-4.375,0.479c-6.472,1.079-5.693,8.648-5.693,8.648C3.029,23.124,10.64,26,12.498,26c1.258,0,1.318-0.599,1.918-0.599c0.599,0,1.258,0.599,2.517,0.599C21.307,26,27,22.165,27,14.554C27,6.284,20.049,5,17.532,5z M19.721,7.572l1.765,2.353l-1.176,1.765l-4.118,0.588L19.721,7.572z M16.191,14.042l-1.765,1.765l-1.765-1.765H16.191z M9.132,9.336l3.529,2.941H8.544l-1.176-1.176L9.132,9.336z M23.25,20.513c0-0.588-0.588-1.765-0.588-1.765c0,1.176-0.588,2.353-1.177,2.941c-0.176-0.588-0.588-1.176-0.588-1.176c-0.588,1.176-1.177,1.765-1.177,1.765c-0.412-0.647-1.176-1.176-1.176-1.176c0,0.882-0.588,1.765-0.588,1.765c-0.706-0.471-1.177-1.177-1.177-1.177s-0.588,0.824-0.588,1.765c-0.353-0.412-0.941-1.235-1.177-1.765c0,0-0.588,0.588-0.588,1.765c-0.588-0.471-1.765-1.765-1.765-1.765s-0.588,1.177-0.588,1.765c0,0-0.765-0.706-1.176-1.765c0,0-0.588,0.588-0.588,1.177c-1.765-1.177-1.765-2.353-1.765-2.353s-0.588,0.588-0.588,1.765c-1.765-1.765-2.941-3.529-2.941-6.471c0-1.118,0.588-2.941,1.177-3.529c-0.588,4.118,0.588,5.294,0.588,5.294c0-0.235,0-1.177,1.177-2.353c0,2.353,0.588,3.529,0.588,3.529c0-0.588,0.588-1.765,1.176-2.353c0,2.353,1.765,3.529,1.765,3.529c0-0.588,0.588-1.765,1.177-2.353c0,0.588,1.765,2.941,1.765,2.941s0-1.765,0.588-2.941c0.588,1.176,1.765,2.353,1.765,2.353s0.588-1.176,0.588-2.941c0,0,1.765,1.176,2.353,2.941c0,0,1.177-1.176,1.177-4.118c0,0,1.176,1.176,1.176,2.353c0,0,1.176-2.941,0.588-4.118c0,0,1.176,1.176,1.176,2.353c0,0,0.588-2.353-0.588-5.882c1.235,1.176,1.765,2.941,1.765,5.294C25.015,18.16,23.838,19.925,23.25,20.513z"/>
    <path fill="none" stroke="#000" stroke-linecap="round" stroke-linejoin="round" stroke-miterlimit="10" stroke-width="2" d="M12.795,7.572C10.998,3.317,15,3,15,3"/>
</svg>