<svg xmlns="http://www.w3.org/2000/svg" viewBox="0 0 50 50">
  <path fill="none" stroke="#000" stroke-linecap="round" stroke-linejoin="round" stroke-miterlimit="10" stroke-width="2" d="M5,38c9.729,0,8.167-17.084,12-17c-0.384,5.349,3.147,6.326,2.318,9.197c-0.554,1.918-3.321,3.219-3.318,4.734c0.021,9.363-3,8.264-3,10.224C13,45.791,13.525,46,14,46c1.896,0,4.454-4.814,5-8.021c0.912-5.358,7.467-3.904,9-13.979c0,0,3.192,2.212,5.677,0.153"/>
  <path fill="none" stroke="#000" stroke-linecap="round" stroke-linejoin="round" stroke-miterlimit="10" stroke-width="2" d="M1 35c0 0 1.027 3 4 3C15.001 38 6.699 8 22.991 8c5.301 0 9.484 6 12.009 6 3.309 0 4.445-4.962 4.445-4.962s-1.156-.832-1.39-2.044C37.802 5.68 38.493 4 38.493 4s1.495.673 2.26 2.072c.807 1.476 1.64 2.102 1.64 2.102s1.158.447 2.488 1.68c.945.876 1.524 1.958 1.524 1.958s1.946 1.978 2.397 2.654c.507.761-.231 2.029-.231 2.029l-2.518-.352c0 0-2.491.791-3.806-.669-2.336-.876-1.921 4.255-5.009 6.828-1.447 1.206-1.503 3.946-1.689 5.367-.181 1.387-1.749 3.015-3.136 2.473M42.425 3.988c1.501 2.068.345 3.182 1.282 4.769M35.061 20.143c-3.371 4.933.887 7.595-.426 9.263"/>
</svg>