<svg xmlns="http://www.w3.org/2000/svg" viewBox="0 0 24 24"><path d="M12 10.9A1.1 1.1 0 1 0 12 13.1 1.1 1.1 0 1 0 12 10.9zM7.7 14.5C7.3 13.8 7 12.9 7 12c0-2.8 2.2-5 5-5 .9 0 1.8.3 2.5.7L18 1.6c-1.8-1-3.8-1.6-6-1.6C5.4 0 0 5.4 0 12c0 2.2.6 4.3 1.6 6L7.7 14.5zM22.4 6l-6.1 3.5c.4.7.7 1.6.7 2.5 0 2.8-2.2 5-5 5-.9 0-1.8-.3-2.5-.7L6 22.4c1.8 1 3.8 1.6 6 1.6 6.6 0 12-5.4 12-12C24 9.8 23.4 7.7 22.4 6z"/><g><path d="M12,1.5c5.8,0,10.5,4.7,10.5,10.5S17.8,22.5,12,22.5S1.5,17.8,1.5,12S6.2,1.5,12,1.5 M12,17.5 c3,0,5.5-2.5,5.5-5.5S15,6.5,12,6.5S6.5,9,6.5,12S9,17.5,12,17.5 M12,0C5.4,0,0,5.4,0,12c0,6.6,5.4,12,12,12s12-5.4,12-12 C24,5.4,18.6,0,12,0L12,0z M12,16c-2.2,0-4-1.8-4-4s1.8-4,4-4s4,1.8,4,4S14.2,16,12,16L12,16z"/></g></svg>