<svg xmlns="http://www.w3.org/2000/svg" viewBox="0 0 16 16">
  <path d="M1.929 5h1.362l1.049-.338c.153-.05.273-.169.323-.323l.44-1.366 1.403.302c.156.033.321-.01.44-.118L8.01 2.194l1.065.963c.119.107.282.149.44.118l1.402-.302.44 1.366c.049.153.169.273.322.323L12.729 5h1.362l.028-.13c.054-.251-.092-.502-.336-.581l-1.552-.5L11.73 2.236c-.078-.243-.326-.39-.581-.335L9.556 2.244l-1.21-1.095c-.19-.172-.48-.172-.671 0l-1.21 1.094L4.87 1.9c-.25-.057-.502.091-.581.335l-.5 1.553-1.552.5c-.245.079-.39.33-.335.581L1.929 5zM14.087 11h-1.295l-1.111.358c-.153.049-.273.169-.322.322l-.44 1.365-1.403-.301c-.155-.032-.32.011-.439.118L8.01 13.826l-1.064-.963c-.093-.084-.213-.129-.335-.129-.035 0-.07.004-.105.011l-1.403.301-.44-1.365c-.05-.153-.169-.273-.323-.322L3.228 11H1.934l-.032.15c-.054.251.091.502.335.58l1.552.501.5 1.552c.079.244.332.384.581.336l1.594-.342 1.21 1.094C7.77 14.957 7.89 15 8.01 15s.24-.043.335-.129l1.21-1.094 1.595.342c.255.05.502-.092.58-.336l.501-1.552 1.552-.501c.244-.078.39-.329.336-.58L14.087 11z"/>
  <path fill="none" stroke="#000" stroke-miterlimit="10" d="M2.5 6L2.5 10M4.5 6L4.5 10M2.5 7.25L4.5 8.75M9 9.5L6.5 9.5 6.5 6.5 8.5 6.5 8.5 7.75 6.5 8.5M10.5 6L10.5 9.375 12 8.5 13.5 9.375 13.5 6"/>
</svg>