<svg xmlns="http://www.w3.org/2000/svg" viewBox="0 0 30 30"><path d="M20 5A3 3 0 1 0 20 11 3 3 0 1 0 20 5zM15 15c-1.657 0-3 1.343-3 3s1.343 3 3 3 3-1.343 3-3S16.657 15 15 15zM15 19c-.552 0-1-.448-1-1 0-.552.448-1 1-1s1 .448 1 1C16 18.552 15.552 19 15 19z"/><path d="M29.094 15.202l-3.277-5.664c-.537-.925-1.525-1.495-2.595-1.495H15V17h2.181C17.067 17.482 17 17.983 17 18.5c0 3.59 2.91 6.5 6.5 6.5s6.5-2.91 6.5-6.5C30 17.294 29.666 16.169 29.094 15.202zM23.5 23c-2.485 0-4.5-2.015-4.5-4.5s2.015-4.5 4.5-4.5 4.5 2.015 4.5 4.5S25.985 23 23.5 23zM10 5A3 3 0 1 0 10 11 3 3 0 1 0 10 5z"/><path d="M0,18.5C0,22.09,2.91,25,6.5,25s6.5-2.91,6.5-6.5c0-0.517-0.067-1.018-0.181-1.5H15V8.043H6.778c-1.07,0-2.058,0.569-2.595,1.495l-3.277,5.664C0.334,16.169,0,17.294,0,18.5z M2,18.5C2,16.015,4.015,14,6.5,14s4.5,2.015,4.5,4.5S8.985,23,6.5,23S2,20.985,2,18.5z"/></svg>