<svg xmlns="http://www.w3.org/2000/svg" viewBox="0 0 128 128">
  <path d="M66.4,103.2c2.1,12,12.3,20.8,24.1,20.8c1.4,0,2.7-0.1,4.1-0.4c6.4-1.1,11.9-4.8,15.6-10.2c3.7-5.4,5-12,3.9-18.6C112,82.8,101.9,74,90,74c-1.4,0-2.7,0.1-4.1,0.4C72.8,76.7,64,89.7,66.4,103.2z M87,80.3c1-0.2,2-0.3,3.1-0.3c8.9,0,16.6,6.7,18.2,15.8c0.9,5-0.2,10.1-3,14.2c-2.8,4.1-6.9,6.8-11.7,7.7c-1,0.2-2,0.3-3.1,0.3c-8.9,0-16.6-6.7-18.2-15.8C70.5,91.9,77.1,82.1,87,80.3z"/>
  <path d="M83.7 109.9c.5.4 1.2.6 1.8.6 1 0 2-.5 2.6-1.4l9.6-16.4c1-1.4.6-3.4-.8-4.4-.5-.4-1.2-.6-1.8-.6-1 0-2 .5-2.6 1.4l-9.6 16.4C81.9 106.9 82.3 108.9 83.7 109.9zM20.8 120.9L21 121c3 1.7 6.4 2.6 9.8 2.6 7 0 13.5-3.8 17-9.8l11.7-20.3c0 0 0 0 0 0 0 0 0 0 0 0l11.7-20.3c5.4-9.4 2.2-21.4-7.2-26.8l-.1-.1c-3-1.7-6.4-2.6-9.8-2.6-7 0-13.5 3.8-17 9.8L25.4 73.8c0 0 0 0 0 0 0 0 0 0 0 0L13.7 94.1C8.2 103.5 11.5 115.5 20.8 120.9zM42.3 56.4c2.4-4.2 6.9-6.8 11.8-6.8 2.4 0 4.7.6 6.8 1.8l.1.1c6.5 3.8 8.7 12.1 5 18.6L55.8 87.9 32.1 74.2 42.3 56.4zM18.8 97.1l10.2-17.7 17.4 10.1-10.3 17.9c-2.8 4.8-7.5 7.7-12.6 8.2C17.3 111.7 15.2 103.5 18.8 97.1z"/>
  <path d="M50.4,56.6c-1.4-0.8-3.3-0.3-4.1,1.1l-7,12.1c-0.8,1.4-0.3,3.3,1.1,4.1c0.5,0.3,1,0.4,1.5,0.4c1,0,2-0.5,2.6-1.5l7-12.1C52.3,59.2,51.8,57.4,50.4,56.6z"/>
</svg>