<svg xmlns="http://www.w3.org/2000/svg" viewBox="0 0 30 30">
  <path d="M13,21c0-2.57,1.217-4.851,3.1-6.314l-3.873-3.873c-0.391-0.391-0.391-1.024,0-1.414l2.664-2.664c1.154-1.154,2.671-1.731,4.188-1.731c1.516,0,3.033,0.577,4.187,1.731c1.887,1.887,2.205,4.73,1.007,6.971c0.622,0.279,1.202,0.634,1.727,1.055c1.669-3.012,1.233-6.886-1.32-9.44c-1.616-1.616-3.808-2.448-6.113-2.304c-2.004,0.125-3.868,1.082-5.288,2.502l-7.735,7.735c-3.084,3.084-3.363,8.154-0.345,11.302C6.708,26.13,8.748,27,10.921,27c1.367,0,2.679-0.349,3.842-0.996C13.662,24.633,13,22.895,13,21z"/>
  <path d="M21,15c-3.314,0-6,2.686-6,6s2.686,6,6,6s6-2.686,6-6S24.314,15,21,15z M22.414,23.828l-4.243-4.243c-0.391-0.391-0.39-1.024,0-1.414c0.391-0.391,1.024-0.391,1.414,0l4.243,4.243c0.391,0.391,0.391,1.024,0,1.414C23.438,24.219,22.805,24.219,22.414,23.828z"/>
</svg>