<svg xmlns="http://www.w3.org/2000/svg" id="leia" viewBox="0 0 100 100">
  <path fill="#fff" d="M20.3 56.1A.9.9 0 1 0 20.3 57.9.9.9 0 1 0 20.3 56.1zM79.3 31.400000000000002A.7.7 0 1 0 79.3 32.800000000000004.7.7 0 1 0 79.3 31.400000000000002z"/>
  <path fill="#f1bc19" d="M76.7 12.2A.9.9 0 1 0 76.7 14 .9.9 0 1 0 76.7 12.2zM20.7 63.800000000000004A.9.9 0 1 0 20.7 65.60000000000001.9.9 0 1 0 20.7 63.800000000000004z"/>
  <path fill="#f9dbd2" d="M49.6 12.799999999999997A37.5 37.5 0 1 0 49.6 87.8A37.5 37.5 0 1 0 49.6 12.799999999999997Z"/>
  <path fill="#f1bc19" d="M82.1 11.2A4 4 0 1 0 82.1 19.2A4 4 0 1 0 82.1 11.2Z"/>
  <path fill="#ee3e54" d="M86.1 22.400000000000002A1.9 1.9 0 1 0 86.1 26.2A1.9 1.9 0 1 0 86.1 22.400000000000002Z"/>
  <path fill="#fbcd59" d="M77.1 74.8A1.9 1.9 0 1 0 77.1 78.60000000000001 1.9 1.9 0 1 0 77.1 74.8zM14 59.8A4 4 0 1 0 14 67.8 4 4 0 1 0 14 59.8z"/>
  <path fill="#ee3e54" d="M24.2 86A1.9 1.9 0 1 0 24.2 89.80000000000001A1.9 1.9 0 1 0 24.2 86Z"/>
  <path fill="#fff" d="M75.8 28.8A1.8 1.8 0 1 0 75.8 32.4 1.8 1.8 0 1 0 75.8 28.8zM17.7 49.2A2.5 2.5 0 1 0 17.7 54.2 2.5 2.5 0 1 0 17.7 49.2z"/>
  <path fill="#51302f" d="M62.9 35.8A8.3 12.3 0 1 0 62.9 60.400000000000006 8.3 12.3 0 1 0 62.9 35.8zM37.9 35.8A8.3 12.3 0 1 0 37.9 60.400000000000006 8.3 12.3 0 1 0 37.9 35.8z"/>
  <path fill="#d8ad8f" d="M61.3,44.8c0.1-1.4,0.5-3.1,0.6-3.8l-1.1-3.1c-1.3-1.6-2.1-3-3.8-4.1c-1.9-1.2-4.4-0.5-6.6-1 c-5.4-1.4-10.4,4.1-12,9.2c0,0,0,0.1,0,0.1c0.2,0.9,0.3,1.9,0.3,2.8c-1.5,0-2.2,0.8-1.7,2.3c0,0,0.6,2.5,0.9,3.7 c0.1,0.7,0.7,1.2,1.4,1.2c0,0.8,0,1.6,0,2.4c0,1,0.3,1.9,0.8,2.7c1.4,2.1,8.8,6.8,10.5,6.7c2.9,0,8.6-4.9,10-7.3 c0.3-0.5,0.4-1,0.5-1.6c0-0.9,0-1.9,0-2.8c0.6-0.1,1.1-0.5,1.2-1.1c0.4-1.2,0.9-3.7,1-3.7C63.8,45.5,62.7,44.7,61.3,44.8z"/>
  <path fill="#b2876b" d="M65.6,69l-0.3-0.1l-0.5-0.2c-1.2-0.5-8.8-3.1-8.8-3.1c-0.5-0.1-0.9-0.5-1.2-1 c-0.2-0.9-0.3-1.8-0.2-2.8c-1.3,0.6-2.6,1-4,1.3c-1.8,0.2-4.9-2.1-4.9-2.1s-0.1,2.9-0.2,3.5c-0.2,0.6-0.6,1-1.2,1.1L37,68 c-0.7,0.2-1.4,0.5-2.1,0.9c-1.6,1-2.7,2.6-3.1,4.4l0,0c0,0.2-0.1,0.4-0.1,0.6c-0.1,0.4-0.1,0.8-0.1,1.3c0,0.4-0.1,6.9-0.1,7.4 c6.5,3.8,11,5.1,21,5.1c4.4,0,13.3-3.9,16.7-5.7C68.8,73.1,69.7,70.3,65.6,69z"/>
  <path fill="#fdfcef" d="M65.6,69.1L65.3,69l-0.5-0.2c-1-0.4-6.2-2.2-8.1-2.9c-3.6,1.2-7.4,0.9-11.1,0.9 c-0.8,0-1.5-0.3-2-0.8L37,68.2c-2.6,0.6-4.6,2.7-5.2,5.3l0,0c0,0.2-0.1,0.4-0.1,0.6c-0.1,0.4-0.1,0.8-0.1,1.3 c0,0.4-0.1,6.9-0.1,7.4c6.6,3.8,11.1,5.1,21.1,5.1c4.4,0,13.3-3.9,16.7-5.7C68.8,73.2,69.7,70.4,65.6,69.1z"/>
  <path fill="#472b29" d="M39.6 52.6c-.1 0-.2-.1-.2-.2l-.8-7.6c0-.1.1-.2.2-.2.1 0 .2.1.2.2l.8 7.6C39.8 52.5 39.7 52.6 39.6 52.6 39.6 52.6 39.6 52.6 39.6 52.6zM61 52.2C61 52.2 61 52.2 61 52.2c-.1 0-.2-.1-.2-.2l.5-7.7c0-.1.1-.2.2-.2.1 0 .2.1.2.2L61.2 52C61.2 52.1 61.1 52.2 61 52.2zM50.6 63.3c-1.9 0-4.8-1.6-4.9-1.7-.1-.1-.2-.2-.1-.3.1-.1.2-.2.3-.1 0 0 3.2 1.7 4.9 1.6 1.4-.3 2.8-.8 4.1-1.5.1-.1.3 0 .3.1.1.1 0 .3-.1.3-1.3.8-2.7 1.3-4.2 1.6C50.8 63.3 50.7 63.3 50.6 63.3z"/>
  <path fill="#472b29" d="M50.4,52.6c0.8,0,1.5-0.3,2.1-0.9c0-0.1,0-0.1,0-0.2l0,0 c-0.1-0.1-0.1-0.1-0.2,0c0,0,0,0,0,0c-1,1-2.7,1-3.7,0c0,0-0.1,0-0.1,0c0,0-0.1,0-0.1,0c0,0.1,0,0.1,0,0.2 C48.9,52.3,49.6,52.6,50.4,52.6z" opacity=".41"/>
  <path fill="#472b29" d="M47.9 42.2l.5-1c-2.2-.5-4.5-.4-6.6.2l.6.9C44.2 41.8 46.1 41.8 47.9 42.2zM58.6 42.2l.5-1c-2.2-.5-4.5-.4-6.6.2l.6.9C54.9 41.8 56.8 41.8 58.6 42.2zM44.6 43.6c-.5 0-1 .4-1.2.8.1 0 .1 0 .2 0 .5.1.8.5.7 1-.1.4-.3.7-.7.7-.1 0-.3 0-.4-.1.1.7.7 1.3 1.4 1.3 1-.3 1.7-1.3 1.4-2.3C45.8 44.3 45.3 43.8 44.6 43.6L44.6 43.6zM55.8 43.6c-.5 0-.9.3-1.1.6.1 0 .2-.1.3-.1.5.1.8.5.7 1-.1.4-.3.7-.7.7-.3 0-.5-.1-.6-.4.2.8 1.1 1.3 1.9 1.1s1.3-1.1 1.1-1.9C57.1 44.1 56.5 43.6 55.8 43.6zM56.6 55.1c.1-.1.1-.1 0-.2 0 0 0 0 0 0l0 0c-.1-.1-.1-.1-.2 0 0 0 0 0 0 0-1.8 1.2-3.9 1.8-6 1.7-2.1.1-4.2-.5-6-1.7-.1-.1-.1-.1-.2 0-.1.1-.1.1 0 .2 0 0 0 0 0 0C47.9 57.7 52.8 57.7 56.6 55.1L56.6 55.1z"/>
  <path fill="#cd9480" d="M43.2 49.5A2.2 2.2 0 1 0 43.2 53.900000000000006 2.2 2.2 0 1 0 43.2 49.5zM57.4 49.5A2.2 2.2 0 1 0 57.4 53.900000000000006 2.2 2.2 0 1 0 57.4 49.5z"/>
  <path fill="#472b29" d="M49.9,88.2c-6.5,0-13-1.7-18.7-5.2c-0.1-0.1-0.2-0.2-0.2-0.4c-0.1-5.4,0.4-12.3,3.8-14 c0.7-0.4,1.4-0.7,2.1-0.9l7.3-2.5c0.5-0.1,0.8-0.4,0.9-0.7c0.1-0.4,0.2-1.9,0.2-2.7c-2.1-1.3-4.7-3.2-5.5-4.5 c-0.6-0.9-0.9-1.9-0.9-3l0-1.9c-0.7-0.2-1.2-0.7-1.4-1.5c-0.4-1.1-0.9-3.6-0.9-3.7c-0.4-1-0.1-1.7,0.2-2.1 c0.2-0.3,0.7-0.7,1.5-0.8c0-0.1,0-0.3,0-0.4c-0.3-0.5-0.4-1.1-0.5-1.7C37.7,36.1,43.2,31,50,31c6.8,0,12.3,5,12.3,11.2 c0,0.7-0.2,1.3-0.5,1.8c0,0.1,0,0.2,0,0.3c0.8,0.1,1.4,0.4,1.8,0.9c0.3,0.4,0.5,1,0.2,2c-0.1,0.6-0.7,2.8-0.9,3.7 c-0.1,0.6-0.6,1.1-1.2,1.4v2.4c0,0.7-0.2,1.3-0.5,1.8c-1.7,2.3-3.7,4.2-6.1,5.8c0,0.7,0,1.4,0.2,2.1c0.1,0.3,0.4,0.5,0.8,0.6 c0.3,0.1,7.7,2.6,8.9,3.1l0.9,0.4c3.6,1.2,3.7,5.8,3.8,12.3l0,1c0,0.2-0.1,0.3-0.2,0.4C63.6,86.3,56.7,88.2,49.9,88.2z M31.9,82.3c11.3,6.8,25.7,6.5,36.8-0.6l0-0.7c-0.1-6.3-0.2-10.5-3.2-11.4c0,0-0.1,0-0.1,0l-0.3-0.2l-0.5-0.2 c-1.1-0.5-8.7-3.1-8.8-3.1c-0.6-0.2-1.2-0.6-1.4-1.3c-0.3-1-0.3-1.9-0.3-2.8c0-0.2,0.1-0.3,0.2-0.4c2.3-1.5,4.3-3.4,6-5.6 c0.2-0.4,0.3-0.8,0.3-1.3V52c0-0.3,0.2-0.5,0.4-0.5c0.4-0.1,0.7-0.3,0.8-0.7c0.4-1.2,0.9-3.6,0.9-3.7c0.2-0.5,0.1-0.9-0.1-1.2 c-0.3-0.3-0.8-0.5-1.5-0.5c-0.1,0-0.3,0-0.4-0.1c-0.1-0.1-0.2-0.2-0.2-0.4c0-0.7,0-1.1,0.2-1.3c0.2-0.4,0.3-0.9,0.3-1.3 C61.2,36.6,56.2,32,50,32c-6.2,0-11.3,4.6-11.3,10.3c0,0.4,0.2,0.9,0.4,1.3c0,0,0,0.1,0,0.2c0,0.4,0.1,0.7,0.1,1.1 c0,0.1,0,0.3-0.1,0.4c-0.1,0.1-0.2,0.2-0.4,0.2c-0.6,0-1,0.1-1.2,0.4c-0.2,0.3-0.1,0.8,0,1.2c0,0.1,0.6,2.5,0.9,3.7 c0.1,0.5,0.4,0.8,0.9,0.8c0.1,0,0.3,0.1,0.4,0.1c0.1,0.1,0.1,0.2,0.1,0.4v2.4c0,0.9,0.2,1.7,0.7,2.4c0.7,1,3,2.8,5.5,4.3 c0.1,0.1,0.2,0.3,0.2,0.4c0,0.7-0.2,2.6-0.3,3.2c-0.2,0.8-0.8,1.3-1.6,1.5l-7.3,2.5c-0.7,0.2-1.4,0.5-2,0.8 C32.9,70.6,31.8,75.2,31.9,82.3z"/>
  <path fill="#472b29" d="M50.4,30.5c-7,0-12.7,5.2-12.7,11.6c0,0.6,0.2,1.2,0.5,1.8c1.5-5.7,8.6-8.4,12.2-8.4 s10.6,2.4,12.2,8.4c0.3-0.6,0.4-1.2,0.4-1.8C63.1,35.7,57.4,30.5,50.4,30.5z"/>
  <path fill="#472b29" d="M50.4,28.3c-7.6,0-13.8,5.2-13.8,11.6c0,0.6,0.2,1.2,0.5,1.8c1.7-5.7,9.4-8.4,13.3-8.4 s11.6,2.4,13.3,8.4c0.3-0.6,0.4-1.2,0.5-1.8C64.2,33.5,58,28.3,50.4,28.3z"/>
  <path fill="#472b29" d="M51.2 34.6c.3.1.5.2.7.3 1.3.7 2.4 2 2.8 3.4.5 1.4.8 2.8 1.5 4.1.6 1.5 1.9 2.6 3.4 3 1.4.2 2.8.2 4.2-.2.3-1.2.3-2.5.2-3.8-.1-1.4-.6-2.7-1.3-3.9-1.9-2.8-6.3-4.3-10.2-3.3M49.6 34.6c-.3.1-.5.2-.7.3-1.3.7-2.4 2-2.8 3.4-.4 1.4-.9 2.8-1.5 4.1-.6 1.5-1.9 2.6-3.4 3-1.4.2-2.8.2-4.2-.2-.3-1.2-.3-2.5-.2-3.8.1-1.4.6-2.7 1.3-3.9 1.9-2.8 6.3-4.3 10.2-3.3"/>
  <path fill="#e1e0d8" d="M56.8,68.4c-2.3,0.5-4.6,0.8-7,0.7c-2.4,0.1-4.7-0.2-7-0.7c-0.9-0.1-1.7-0.9-1.6-1.8l0,0 c-0.1-0.9,0.7-1.7,1.6-1.8c0,0,4.4,0.5,6.8,0.5s7.1-0.5,7.1-0.5c0.9,0.1,1.7,0.9,1.6,1.8l0,0C58.4,67.5,57.7,68.3,56.8,68.4z"/>
  <path fill="#472b29" d="M49.1,69.4c-2.1,0-4.3-0.2-6.4-0.7c-1.1-0.1-1.9-1-1.9-2.2c-0.1-1.1,0.8-2.1,1.9-2.1 c0.1,0,4.4,0.5,6.9,0.5c2.4,0,7-0.5,7-0.5c1.2,0.1,2,1,2,2.2c0.1,1.1-0.7,2-1.8,2.1c-2.3,0.5-4.7,0.8-7.1,0.7 C49.5,69.4,49.3,69.4,49.1,69.4z M42.7,65.1c-0.7,0-1.2,0.7-1.2,1.4c0,0.8,0.5,1.4,1.3,1.5c2.3,0.5,4.7,0.8,7,0.7 c2.3,0,4.7-0.2,6.9-0.7l0,0c0.7-0.1,1.3-0.7,1.2-1.4c0-0.8-0.5-1.4-1.3-1.5c-0.1,0-4.6,0.5-7.1,0.5 C47.1,65.6,42.9,65.1,42.7,65.1z"/>
</svg>