<svg xmlns="http://www.w3.org/2000/svg" viewBox="0 0 50 50">
  <path fill="none" stroke="#000" stroke-linejoin="round" stroke-miterlimit="10" stroke-width="2" d="M17,28L36.8,8.1c0.4-0.4,0.8-0.6,1.3-0.6l1.1-0.1c0.5-0.1,1-0.3,1.4-0.7L43,4.3l-0.9-0.9l-5.9,1.1c-0.5,0.1-1,0.4-1.4,0.7L14.6,25.6L17,28z"/>
  <path d="M35.3 2.1999999999999997A.6.6 0 1 0 35.3 3.4.6.6 0 1 0 35.3 2.1999999999999997zM37 1.7999999999999998A.6.6 0 1 0 37 3 .6.6 0 1 0 37 1.7999999999999998zM38.6 1.5A.6.6 0 1 0 38.6 2.7.6.6 0 1 0 38.6 1.5zM40.2 1.2000000000000002A.6.6 0 1 0 40.2 2.4.6.6 0 1 0 40.2 1.2000000000000002zM41.8 1A.6.6 0 1 0 41.8 2.2.6.6 0 1 0 41.8 1z"/>
  <path fill="none" stroke="#000" stroke-linejoin="round" stroke-miterlimit="10" stroke-width="2" d="M22.4,34l18.4-18.4c0.4-0.4,0.8-0.6,1.3-0.6l1.1-0.1c0.5-0.1,1-0.3,1.4-0.7l2.4-2.4l-0.9-0.9L40.2,12c-0.5,0.1-1,0.4-1.4,0.7L20,31.6L22.4,34z"/>
  <path fill="none" stroke="#000" stroke-linecap="round" stroke-linejoin="round" stroke-miterlimit="10" stroke-width="2" d="M26.638,29.763L26.638,29.763L22.4,34L20,31.6l4.576-4.6c-0.51,0-1.329,0-1.576,0c-1.105,0-2-0.895-2-2c0-0.365,0-1,0-1l-0.008-0.013L17,28l-2.4-2.4l4.603-4.649l-0.03-0.05C18.359,19.751,17.017,19,15.5,19c-2.316,0-4.223,1.75-4.472,3.999C11.009,23.164,11,23.331,11,23.5V24c-0.1,1.6-1,3-3,3c-0.054,0-0.085,0.018-0.122,0.031C4.027,27.348,1,30.568,1,34.5c0,0.154,0.013,0.382,0.013,0.5c-0.136,2.987,1.018,6.287,3.887,9.1C7.389,46.589,10,48,13.5,48s5.747-2.347,6.4-3c2.3-2.3,1.868-4.153,3.1-6c2-3,6-2.625,6-6.5C29,30.729,27.944,29.763,26.638,29.763z"/>
  <path d="M39.3 9.700000000000001A.6.6 0 1 0 39.3 10.9.6.6 0 1 0 39.3 9.700000000000001zM41 9.3A.6.6 0 1 0 41 10.5.6.6 0 1 0 41 9.3zM42.6 9A.6.6 0 1 0 42.6 10.2.6.6 0 1 0 42.6 9zM44.2 8.700000000000001A.6.6 0 1 0 44.2 9.9.6.6 0 1 0 44.2 8.700000000000001zM45.8 8.5A.6.6 0 1 0 45.8 9.7.6.6 0 1 0 45.8 8.5z"/>
  <path d="M16.284 34.887H17.715V39.113H16.284z" transform="rotate(-45.001 17 37)"/>
  <path d="M10.284 28.887H11.715V33.113H10.284z" transform="rotate(-45.001 11 31)"/>
  <path d="M16 42A1 1 0 1 0 16 44 1 1 0 1 0 16 42zM12 43A1 1 0 1 0 12 45 1 1 0 1 0 12 43z"/>
</svg>