<svg xmlns="http://www.w3.org/2000/svg" viewBox="0 0 50 50">
  <path d="M14,44l1.023,0.606C15.262,41.481,18.295,39,22,39c3.86,0,7,2.691,7,6c0,0.091-0.011,0.18-0.016,0.271L30,45l0.959-0.719C30.548,40.206,26.689,37,22,37c-4.238,0-7.793,2.621-8.743,6.134L14,44z"/>
  <path fill="none" stroke="#000" stroke-linecap="round" stroke-miterlimit="10" stroke-width="2" d="M36 21v5c0 0 3 .304 3 4 0 1.99-1.092 3.805-3 4M9 34c-1.908-.195-3-2.01-3-4 0-3.696 3-4 3-4v-5"/>
  <path d="M38 21.625c0 0 .77 1.116 1.263 5.447C37.706 25.794 36 26.48 36 26.48l-.3-4.855H38zM7.263 21.625c0 0-.77 1.116-1.263 5.447 1.557-1.278 3.263-.592 3.263-.592l.3-4.855H7.263z"/>
  <path fill="none" stroke="#000" stroke-linecap="round" stroke-linejoin="round" stroke-miterlimit="10" stroke-width="2.066" d="M17.95,3h9.099c5.095,0,9.376,3.831,9.939,8.896L38,21H7l1.012-9.104C8.574,6.831,12.855,3,17.95,3z"/>
  <path fill="none" stroke="#000" stroke-linecap="round" stroke-linejoin="round" stroke-miterlimit="10" stroke-width="2.066" d="M22,17h-8c-1.1,0-2-0.9-2-2v0c0-1.1,0.9-2,2-2h8c1.1,0,2,0.9,2,2v0C24,16.1,23.1,17,22,17z"/>
  <path fill="none" stroke="#000" stroke-linejoin="round" stroke-miterlimit="10" stroke-width="2.066" d="M38,21c0,0,4.107,3.36,6,5c3.031,2.625,7.229,8-7.5,8"/>
  <path d="M19,46c0,0,1.719-3,3-3s3,3,3,3H19z"/>
  <path d="M25,47h-6c-0.356,0-0.687-0.19-0.865-0.499s-0.18-0.688-0.002-0.998C18.736,44.449,20.32,42,22,42s3.264,2.449,3.868,3.503c0.177,0.31,0.176,0.689-0.002,0.998S25.356,47,25,47z M20.897,45H23.1c-0.457-0.56-0.888-0.961-1.117-1.001C21.773,44.039,21.351,44.44,20.897,45z"/>
  <path fill="none" stroke="#000" stroke-linecap="round" stroke-miterlimit="10" stroke-width="2" d="M36,34c0,7.18-6.044,13-13.5,13S9,41.18,9,34"/>
  <path d="M29,24.007c-0.643,0-1.256-0.014-1.821,0h-9.353c-0.566-0.014-1.181,0-1.826,0c-2.761,0-5-0.279-5,2.664C11,29.615,13.239,32,16,32c2.53,0,4.581-2.016,4.912-4.617c0.006-0.082,0.08-0.383,0.08-0.383c0.207-0.581,0.756-1,1.408-1h0.2c0.652,0,1.202,0.419,1.408,1c0,0,0.074,0.301,0.08,0.383C24.419,29.984,26.47,32,29,32c2.761,0,5-2.385,5-5.329C34,23.727,31.761,24.007,29,24.007z"/>
</svg>