<svg xmlns="http://www.w3.org/2000/svg" viewBox="0 0 50 50">
  <path d="M31.908 28C31.964 27.843 32 27.676 32 27.5c0-.828-.672-1.5-1.5-1.5S29 26.672 29 27.5c0 .176.036.343.092.5H31.908zM21.908 28C21.964 27.843 22 27.676 22 27.5c0-.828-.672-1.5-1.5-1.5S19 26.672 19 27.5c0 .176.036.343.092.5H21.908z"/>
  <path fill="none" stroke="#000" stroke-linecap="round" stroke-linejoin="round" stroke-miterlimit="10" stroke-width="2" d="M36.027 23.729C36.653 26.565 37 29.701 37 33c0 4.398-.93 8.506-2 12M38.745 25.407C40.12 27.407 41 32.744 41 36c0 5.029-.771 8.602-2.03 12M44.705 45C44.897 43.584 45 42.071 45 40.5c0-8.008-2.25-14.5-4-14.5"/>
  <path fill="none" stroke="#000" stroke-linecap="round" stroke-linejoin="round" stroke-miterlimit="10" stroke-width="2" d="M41,26c-3.908,0-7.25-6-15.5-6S13.908,26,10,26c-2.792,0-4-2.131-4-6.5C6,9.835,14.73,2,25.5,2S45,9.835,45,19.5C45,23.869,43.792,26,41,26c-3.908,0-7.25-6-15.5-6S13.908,26,10,26"/>
  <path fill="none" stroke="#000" stroke-linecap="round" stroke-linejoin="round" stroke-miterlimit="10" stroke-width="2" d="M25.5,20c-8.25,0-11.592,6-15.5,6c-2.792,0-4-2.131-4-6.5c0-1.391,0.2-2.737,0.541-4.034C10.54,9.776,17.534,6,25.5,6s14.96,3.776,18.959,9.466C44.8,16.763,45,18.109,45,19.5c0,4.369-1.208,6.5-4,6.5C37.092,26,33.75,20,25.5,20z"/>
  <path fill="none" stroke="#000" stroke-linecap="round" stroke-linejoin="round" stroke-miterlimit="10" stroke-width="2" d="M25.5,12c8.086,0,15.216,3.563,19.444,8.987C44.682,24.351,43.453,26,41,26c-3.908,0-7.25-6-15.5-6S13.908,26,10,26c-2.453,0-3.682-1.649-3.944-5.013C10.284,15.563,17.414,12,25.5,12s15.216,3.563,19.444,8.987C44.682,24.351,43.453,26,41,26c-3.908,0-7.25-6-15.5-6S13.908,26,10,26c-2.453,0-3.682-1.649-3.944-5.013C10.284,15.563,17.414,12,25.5,12z"/>
  <path fill="none" stroke="#000" stroke-linecap="round" stroke-miterlimit="10" stroke-width="2" d="M25.5 20c-4.493 0-7.526 1.779-9.992 3.4C15.181 24.85 15 26.394 15 28c0 8.284 4.701 15 10.5 15S36 36.284 36 28c0-1.606-.181-3.15-.508-4.6C33.026 21.779 29.993 20 25.5 20zM27 35L30 36M24 35L21 36"/>
  <path d="M32.409,39.793c-0.116-0.21-0.304-0.35-0.512-0.432L32,39l-0.376,0.301c-0.193-0.018-0.392,0.001-0.574,0.102c-0.729,0.403-1.563,0.718-2.346,0.957c-0.767,0.235-1.615-0.022-2.106-0.657C26.267,39.274,25.894,39,25.5,39s-0.767,0.274-1.098,0.703c-0.49,0.635-1.338,0.892-2.106,0.657c-0.783-0.24-1.617-0.554-2.346-0.957c-0.183-0.101-0.381-0.12-0.574-0.102L19,39l0.103,0.361c-0.208,0.082-0.395,0.221-0.512,0.432c-0.268,0.483-0.092,1.092,0.391,1.359c0.239,0.132,0.487,0.253,0.738,0.369l1.391,2.123C21.666,44.49,22.609,45,23.621,45h3.758c1.011,0,1.955-0.51,2.509-1.356l1.391-2.123c0.251-0.116,0.499-0.237,0.738-0.369C32.501,40.885,32.676,40.276,32.409,39.793z"/>
  <path fill="none" stroke="#000" stroke-linecap="round" stroke-linejoin="round" stroke-miterlimit="10" stroke-width="2" d="M16 45c-1.07-3.494-2-7.602-2-12 0-3.299.347-6.435.973-9.271M12.03 48C10.771 44.602 10 41.029 10 36c0-3.256.88-8.593 2.255-10.593M10 26c-1.75 0-4 6.492-4 14.5 0 1.571.103 3.084.295 4.5"/>
</svg>