<svg xmlns="http://www.w3.org/2000/svg" viewBox="0 0 50 50">
  <path fill="none" stroke="#000" stroke-linejoin="round" stroke-miterlimit="10" stroke-width="2" d="M21.4,31L42.8,9.6c0.4-0.4,0.8-0.6,1.3-0.6l1.1-0.1c0.5-0.1,1-0.3,1.4-0.7L49,5.8l-0.9-0.9L42.2,6c-0.5,0.1-1,0.4-1.4,0.7L19,28.6L21.4,31z"/>
  <path fill="none" stroke="#000" stroke-linecap="round" stroke-linejoin="round" stroke-miterlimit="10" stroke-width="2" d="M23.1,24.2c0.2-1.3,0.1-2.5-1.1-3.7c-1.7-1.7-4.7-1.8-6.6,0l0,0c-1.1,1.1-1.6,2.4-1.7,3.5c-0.1,1.6-1.5,2.8-3.1,2.7c-2.1-0.1-4.7,0.3-6.7,2.3l0,0C0,33-0.3,39,4.9,44.1c5.2,5.2,11.1,4.8,15,0.9c2.3-2.3,2.3-4.4,2.6-6.6c0.5-4.1,6.5-2.3,6.5-6.8c0-1.9-4.6,1.2-5.6-2.6"/>
  <path d="M13.4 32.1H19.6V34.2H13.4z" transform="rotate(-134.999 16.537 33.103)"/>
  <path d="M11.5 34.1H13.6V40.300000000000004H11.5z" transform="rotate(134.999 12.48 37.159)"/>
  <path d="M18 41A1 1 0 1 0 18 43 1 1 0 1 0 18 41zM15 43A1 1 0 1 0 15 45 1 1 0 1 0 15 43zM11 43A1 1 0 1 0 11 45 1 1 0 1 0 11 43zM41.3 3.6999999999999997A.6.6 0 1 0 41.3 4.8999999999999995.6.6 0 1 0 41.3 3.6999999999999997zM43 3.3A.6.6 0 1 0 43 4.5.6.6 0 1 0 43 3.3zM44.6 3A.6.6 0 1 0 44.6 4.2.6.6 0 1 0 44.6 3zM46.2 2.6999999999999997A.6.6 0 1 0 46.2 3.9.6.6 0 1 0 46.2 2.6999999999999997zM47.8 2.5A.6.6 0 1 0 47.8 3.7.6.6 0 1 0 47.8 2.5z"/>
</svg>