<svg xmlns="http://www.w3.org/2000/svg" viewBox="0 0 50 50">
    <path d="M21.6 31.3c-.1 0-.3-.1-.4-.1l-2.4-2.4c-.2-.2-.2-.5 0-.7l5.3-5.3c-.1-.9-.5-1.9-1.4-2.9-1-1-2.5-1.6-4-1.6-1.5 0-2.9.6-4 1.6-1.1 1.1-1.9 2.6-2 4.1-.1 1-.9 1.8-1.9 1.8l-.1 0c-.2 0-.4 0-.6 0-2.8 0-5.1.9-6.8 2.6C-1.4 33-1 39.7 4.2 44.8 6.9 47.5 10 49 13.1 49c2.7 0 5.4-1.2 7.5-3.3 2.3-2.3 2.6-4.5 2.8-6.4 0-.2.1-.5.1-.7.2-1.3 1.1-1.7 2.6-2.4 1.6-.7 3.9-1.5 3.9-4.5 0-.4-.1-1.7-2-1.7-.3 0-.6 0-.9.1-.3 0-.6.1-1 .1-1.1 0-1.5-.3-1.8-1.2l0-.1L22 31.1C21.9 31.2 21.8 31.3 21.6 31.3zM11 45c-.6 0-1-.4-1-1s.4-1 1-1 1 .4 1 1S11.6 45 11 45zM9.5 35.7l1.5-1.5 4.4 4.4-1.5 1.5L9.5 35.7zM15 45c-.6 0-1-.4-1-1s.4-1 1-1 1 .4 1 1S15.6 45 15 45zM18 43c-.6 0-1-.4-1-1s.4-1 1-1 1 .4 1 1S18.6 43 18 43zM18 36l-4.4-4.4 1.5-1.5 4.4 4.4L18 36zM41.3 3.6999999999999997A.6.6 0 1 0 41.3 4.8999999999999995.6.6 0 1 0 41.3 3.6999999999999997zM43 3.3A.6.6 0 1 0 43 4.5.6.6 0 1 0 43 3.3zM44.6 3A.6.6 0 1 0 44.6 4.2.6.6 0 1 0 44.6 3zM46.2 2.6999999999999997A.6.6 0 1 0 46.2 3.9.6.6 0 1 0 46.2 2.6999999999999997zM47.8 2.5A.6.6 0 1 0 47.8 3.7.6.6 0 1 0 47.8 2.5z"/>
    <path fill="none" stroke="#000" stroke-linejoin="round" stroke-miterlimit="10" stroke-width="2" d="M21.4,31L42.8,9.6C43.2,9.2,43.6,9,44.1,9l1.1-0.1c0.5-0.1,1-0.3,1.4-0.7L49,5.8l-0.9-0.9L42.2,6c-0.5,0.1-1,0.4-1.4,0.7L19,28.6L21.4,31z"/>
</svg>