<svg xmlns="http://www.w3.org/2000/svg" viewBox="0 0 32 32">
    <path fill="none" stroke="#000" stroke-miterlimit="10" stroke-width="2" d="M28,5h-2.553c-0.284,0-0.555,0.121-0.745,0.333L13.803,17.496"/>
    <path fill="none" stroke="#000" stroke-miterlimit="10" stroke-width="2" d="M15.266,15.891c-2.672-2.672-0.345-5.304-0.588-5.547C14.435,10.101,11,10.122,11,12.872C11,14.014,10.135,15,8.818,15c-0.812,0-2.087,0.357-3.198,1.468l0,0c-2.166,2.221-2.332,5.554,0.555,8.386c2.888,2.888,6.164,2.666,8.33,0.5c1.277-1.277,1.277-2.444,1.444-3.665C16.228,19.411,20,20.875,20,17.4c0-0.448-1.415,1.153-2.656-0.087"/>
    <path fill="none" stroke="#000" stroke-miterlimit="10" stroke-width="1.4" d="M10.514 17.986L13.014 20.486M8.25 20.25L10.75 22.75"/>
</svg>