<svg xmlns="http://www.w3.org/2000/svg" viewBox="0 0 30 30">
  <path d="M25.045 12.818c0 0-.074.694-.369 1.233-.295.538-.295.668-.222 1.13-.812 0-.591-.591-1.773-.591.739 1.387 1.256 3.545.591 3.545-.591 0-.591-1.182-.591-1.182S21.222 18 21.5 20.5c.074.665-.443.591-.591.591-.443 0-.569-.648 0-1.182 0 0-1.56-.372-2.053 2.682 0 0-.114 1.033-1.973 1.491 0 0-1.603.343-1.883 1.068V27c0 0 .591-1.927 2.955-.616.8.443 2.29 1.105 4.727.025 0 0-1.33-.334-1.182-1.028.233-1.096 2.031.502 3.25-.771.517-.539.665-.925 2.068-1.156 0 0-.295-.591-1.182-.591-.21 0-.886 0-.443-.591.471-.628 2.364-1.285 2.807-4.136 0 0-.369.591-1.773.591 0 0 .591-.36.591-1.593 0-1.335.591-1.952.591-1.952s-.591-.18-1.182.591C26.227 15.773 26.597 13.82 25.045 12.818zM4.955 12.818c0 0 .074.694.369 1.233.295.538.295.668.222 1.13.812 0 .591-.591 1.773-.591-.739 1.387-1.256 3.545-.591 3.545.591 0 .591-1.182.591-1.182S8.778 18 8.5 20.5c-.074.665.443.591.591.591.443 0 .569-.648 0-1.182 0 0 1.56-.372 2.053 2.682 0 0 .114 1.033 1.973 1.491 0 0 1.603.343 1.883 1.068V27c0 0-.591-1.927-2.955-.616-.8.443-2.29 1.105-4.727.025 0 0 1.33-.334 1.182-1.028-.233-1.096-2.031.502-3.25-.771-.517-.54-.665-.925-2.068-1.156 0 0 .295-.591 1.182-.591.21 0 .886 0 .443-.591C4.336 21.645 2.443 20.988 2 18.136c0 0 .369.591 1.773.591 0 0-.591-.36-.591-1.593 0-1.335-.591-1.952-.591-1.952s.591-.18 1.182.591C3.773 15.773 3.403 13.82 4.955 12.818z"/>
  <path d="M15 8A6 6 0 1 0 15 20A6 6 0 1 0 15 8Z"/>
  <path fill="none" stroke="#000" stroke-linecap="round" stroke-linejoin="round" stroke-miterlimit="10" stroke-width="2" d="M15 27L15 3M16 10c0-3.207 2-6 2-6M17 12c0-3.666 3-6 3-6M14 10c0-3.207-2-6-2-6M13 12c0-3.666-3-6-3-6"/>
</svg>