<svg xmlns="http://www.w3.org/2000/svg" viewBox="0 0 50 50">
  <path d="M49 38c-4.118 0-5.011-2.209-5.056-2.33-.014-.04-.043-.068-.061-.104-.029-.059-.058-.115-.099-.168-.044-.058-.095-.104-.15-.15-.029-.025-.047-.058-.079-.08-.017-.012-.038-.012-.056-.023-.064-.037-.131-.06-.201-.083-.056-.018-.109-.038-.166-.045-.062-.008-.123-.003-.187.001-.069.004-.136.008-.203.026-.02.005-.039.001-.059.008-.039.013-.067.042-.103.059-.064.03-.125.06-.181.104-.055.042-.099.091-.144.144-.027.032-.063.051-.087.087C42.151 35.471 40.425 38 37 38c-3.382 0-5.095-2.448-5.17-2.559-.047-.07-.112-.116-.172-.17-.037-.033-.061-.075-.103-.104-.001-.001-.002 0-.003-.001-.11-.073-.233-.123-.361-.148-.077-.015-.153-.004-.23-.001-.051.002-.102-.009-.153.001-.129.025-.252.075-.363.149 0 0 0 0 0 0-.027.018-.041.046-.066.066-.077.062-.154.125-.211.211 0 0-.002.003-.002.003s0 .001-.001.001C30.12 35.516 28.397 38 25 38c-3.382 0-5.095-2.448-5.17-2.559-.046-.069-.11-.114-.169-.167-.037-.034-.062-.077-.106-.106-.001-.001-.002-.001-.003-.001-.11-.073-.233-.123-.361-.148-.077-.015-.153-.004-.23-.001-.051.002-.102-.009-.153.001-.129.025-.252.075-.363.149 0 0 0 0 0 0-.013.008-.019.022-.031.031-.092.068-.18.146-.247.247 0 0-.002.003-.002.003s0 .001-.001.001C18.12 35.516 16.397 38 13 38c-3.382 0-5.095-2.448-5.17-2.559-.048-.072-.115-.12-.177-.175-.035-.031-.058-.071-.098-.098-.001 0-.002 0-.002-.001-.11-.073-.233-.123-.361-.148-.077-.015-.153-.004-.23-.001C6.91 35.02 6.86 35.009 6.809 35.019c-.129.025-.252.075-.362.149 0 0-.001 0-.001 0-.041.027-.064.068-.1.1-.062.056-.129.105-.178.177 0 0-.002.003-.002.003s0 .001-.001.001C6.12 35.516 4.397 38 1 38c-.552 0-1 .448-1 1s.448 1 1 1c2.98 0 4.969-1.457 6-2.478C8.031 38.543 10.02 40 13 40s4.969-1.457 6-2.478C20.031 38.543 22.02 40 25 40s4.969-1.457 6-2.478C32.031 38.543 34.02 40 37 40c2.857 0 4.806-1.341 5.87-2.351C43.773 38.705 45.574 40 49 40c.552 0 1-.448 1-1S49.552 38 49 38zM1 35c2.98 0 4.969-1.457 6-2.478C8.031 33.543 10.02 35 13 35s4.969-1.457 6-2.478C20.031 33.543 22.02 35 25 35s4.969-1.457 6-2.478C32.031 33.543 34.02 35 37 35c2.857 0 4.806-1.341 5.87-2.351C43.773 33.705 45.574 35 49 35c.552 0 1-.448 1-1 0-.195-.07-.366-.167-.52l.015-.009-5-8C44.665 25.178 44.345 25 44 25h-2.974c.26-5.906 2.74-9.237 2.765-9.269.216-.279.269-.651.139-.979-.129-.328-.422-.563-.77-.62-.297-.047-6.582-.997-10.608 2.933C27.985 7.121 16.123 7 16 7c-.353 0-.68.186-.86.49-.18.303-.187.68-.018.989.02.037 1.029 1.916 2.039 5.009-2.944-1.471-5.945-1.663-6.616-1.351-.353.165-.599.539-.599.928 0 .181.05.36.143.515.017.029.943 1.607 1.794 4.14-2.51-1.021-5.056-.665-5.198-.644C6.33 17.129 6.03 17.369 5.9 17.705s-.069.715.158.994C6.082 18.727 8.22 21.393 8.577 25H6c-.345 0-.665.178-.848.47l-5 8 .015.009C.07 33.634 0 33.805 0 34 0 34.552.448 35 1 35zM32 20.329L37.338 25H26.662L32 20.329zM41.289 16.006c-.802 1.526-1.874 4.201-2.19 7.877l-5.603-4.903C35.743 16.388 39.307 15.996 41.289 16.006zM31.007 18.54L23.624 25h-2.432c-.186-7.311-2.35-13.179-3.544-15.878C20.905 9.522 28.055 11.238 31.007 18.54zM17.981 16.343c.623 2.482 1.116 5.43 1.204 8.657h-3.933c-.189-4.859-1.678-8.825-2.643-10.893C13.975 14.316 16.092 14.901 17.981 16.343zM8.668 19.028c1.181.087 2.755.427 3.989 1.467.307 1.368.536 2.883.605 4.504h-2.675C10.38 22.489 9.44 20.377 8.668 19.028z"/>
</svg>