<svg xmlns="http://www.w3.org/2000/svg" viewBox="0 0 50 50">
  <path fill="none" stroke="#000" stroke-miterlimit="10" stroke-width="2" d="M27.5 4A3.5 3.5 0 1 0 27.5 11 3.5 3.5 0 1 0 27.5 4zM18.5 7A3.5 3.5 0 1 0 18.5 14 3.5 3.5 0 1 0 18.5 7z"/>
  <path fill="none" stroke="#000" stroke-linejoin="round" stroke-miterlimit="10" stroke-width="2" d="M39.478,8.348c0.742-0.812,0.686-2.083-0.126-2.826c-0.812-0.742-2.083-0.686-2.826,0.126l-3.799,4.239l-13.122,6.729c-1.454,0.745-2.044,2.517-1.327,3.985l2.45,5.019l-4.875,5.729c-0.096,0.086-0.139,0.137-0.126,0.148L7.593,41c-0.891,1.047-0.763,2.633,0.284,3.524v0c1.047,0.891,2.633,0.763,3.524-0.284l9.614-11.241c5.378-0.008,9.748-4.263,9.964-9.59L31,23.416l3.127,8.913c0.455,1.297,1.889,1.987,3.187,1.531c1.297-0.455,1.987-1.889,1.531-3.187l-3.147-8.97c-0.455-1.297-1.889-1.987-3.187-1.531l-1.798,0.505c-0.008,0-0.018,0-0.042,0.012l-2.729,0.766L26.407,18l7.749-4.195l0-0.003c0.282-0.107,0.545-0.272,0.762-0.508L39.478,8.348z"/>
  <path fill="none" stroke="#000" stroke-linejoin="round" stroke-miterlimit="10" stroke-width="2" d="M21.015 32.999l-2.823 3.3-2.859 4.952c-.688 1.191-.276 2.728.915 3.415 1.191.688 2.728.276 3.415-.915L27.06 30.94C25.383 32.225 23.292 32.996 21.015 32.999zM34.126 32.328L31 23.416l-.021-.006c-.081 1.989-.742 3.829-1.818 5.354l.842 13.879c.078 1.373 1.265 2.432 2.638 2.354 1.373-.078 2.432-1.265 2.354-2.638l-.571-9.46C34.305 32.723 34.2 32.537 34.126 32.328zM39.996 6.956c.01.497-.158.998-.518 1.391l-4.561 4.947c-.216.236-.48.401-.762.508l0 .003L26.407 18l1.535 3.454 2.729-.766c.024-.011.034-.012.042-.012l1.798-.505c.497-.174 1.014-.178 1.489-.046V18l6-3V7C40 6.985 39.996 6.971 39.996 6.956z"/>
  <path fill="none" stroke="#000" stroke-miterlimit="10" stroke-width="2" d="M30.541,19.997C30.839,20.945,31,21.954,31,23c0,5.523-4.477,10-10,10c-2.252,0-4.33-0.744-6.001-2"/>
</svg>