<svg xmlns="http://www.w3.org/2000/svg" viewBox="0 0 128 128">
  <path d="M64.9,98c-0.2,0.2-0.4,0.3-0.7,0.5l-0.1-0.1c-3.7-3-7-6.4-9.9-10l-12.6,4.6c-2.3-6.3-0.1-13.1,4.9-17l0,0c-3.8-8.2-5.9-17.3-5.9-26.7v-16c0.3-0.1,0.5-0.2,0.8-0.2c1.6-0.4,2.5-2.1,2.1-3.7c-0.4-1.6-2.1-2.5-3.7-2.1C26.2,30.9,14.2,38.6,5.1,49.4C4.2,50.5,4,52,4.5,53.3l6.9,19c5.8,16,18.4,28.4,34.6,33.9c2.6,0.9,5.3,1.3,8,1.3c5.1,0,10.2-1.6,14.5-4.7c1.3-1,1.6-2.8,0.7-4.2C68.1,97.4,66.2,97,64.9,98z M34.5,61.5L26,64.6c-1.6,0.6-3.3-0.2-3.8-1.8c-0.6-1.6,0.2-3.3,1.8-3.8l8.5-3.1c1.6-0.6,3.3,0.2,3.8,1.8S36,60.9,34.5,61.5z"/>
  <path d="M118.8,25.9l-0.5-0.3c-21.2-12.2-47.5-12.2-68.8,0c0,0,0,0,0,0c-1.2,0.7-2,2-2,3.4v20.3c0,17.1,7.6,33,20.9,43.7c4.5,3.6,10,5.4,15.5,5.4s11-1.8,15.5-5.4c13.3-10.7,20.9-26.6,20.9-43.7V28.5C120.3,27.4,119.8,26.4,118.8,25.9z M84,79v5.9c0,3.2,1.8,5.7,4.2,7c-5.5,1.3-11.4,0.1-15.9-3.6c-11.8-9.6-18.6-23.8-18.6-39v-19c9.4-5.2,19.9-7.8,30.3-7.8V64h15C99,72.3,92.3,79,84,79z M103.1,47h-9c-1.7,0-3-1.3-3-3s1.3-3,3-3h9c1.7,0,3,1.3,3,3S104.7,47,103.1,47z"/>
  <path d="M84 79l0-15H69C69 72.3 75.7 79 84 79zM76.1 44c0-1.7-1.3-3-3-3h-9c-1.7 0-3 1.3-3 3s1.3 3 3 3h9C74.7 47 76.1 45.7 76.1 44z"/>
</svg>