<svg xmlns="http://www.w3.org/2000/svg" viewBox="0 0 16 16">
  <path d="M1 6.75C1.517 6.09 2.372 5.482 3.405 5H0C.414 5.483.924 6.3 1 6.75zM16 5h-3.527C13.644 5.539 14.521 6.203 15 6.75 15.278 6.006 15.556 5.591 16 5z"/>
  <path fill="none" stroke="#000" stroke-miterlimit="10" d="M4 5.5A3.5 3.5 0 1 0 4 12.5A3.5 3.5 0 1 0 4 5.5Z"/>
  <path d="M4 8A1 1 0 1 0 4 10A1 1 0 1 0 4 8Z"/>
  <path fill="none" stroke="#000" stroke-miterlimit="10" d="M12 5.5A3.5 3.5 0 1 0 12 12.5A3.5 3.5 0 1 0 12 5.5Z"/>
  <path fill="none" stroke="#000" stroke-miterlimit="10" d="M12.752,5.565C11.566,4.294,9.876,3.5,8,3.5c-1.81,0-3.447,0.74-4.625,1.933"/>
  <path d="M12 8A1 1 0 1 0 12 10 1 1 0 1 0 12 8zM7 11L8 13 9 11 8.5 9 7.5 9z"/>
</svg>