<svg xmlns="http://www.w3.org/2000/svg" viewBox="0 0 24 24">
  <path d="M23.2,3.1c-0.4,0.4-1.1,0.4-1.5,0l-0.7-0.7c-0.4-0.4-0.4-1.1,0-1.5c0.4-0.4,1.2,0.3,2.3-0.8L24,0.8 C22.9,1.8,23.6,2.7,23.2,3.1z"/>
  <path d="M13 12.8L11.2 11 22.5.8 23.2 1.5zM6.2 15.9L8 17.7 3.2 21.9 2 20.7z"/>
  <path d="M12.1,7.5c1.1,0,2.2,1,2.6,1.5l0.1,0.1l0.1,0.1c0.4,0.3,2.4,2.1,1.1,3.9c-0.2,0.2-0.4,0.5-0.6,0.9 C15.2,14,14.9,14,14.8,14c-1.4,0-2.5,1-3.2,1.7c-2.2,2.2-1.8,3.9-1.1,4.9c-0.2,0.3-0.5,0.5-0.7,0.7c-0.8,0.8-1.6,1.2-2.5,1.2 c-1.2,0-2.5-0.7-3.7-2l0,0l0,0c-1.3-1.2-2-2.5-2-3.7c0-0.9,0.4-1.7,1.2-2.5c0.2-0.2,0.4-0.4,0.7-0.7C4,14,4.6,14.1,5.1,14.1 c1.4,0,2.4-0.9,3.2-1.7c1.5-1.5,1.8-2.8,1.6-3.8c0.4-0.2,0.7-0.5,0.9-0.6C11.2,7.7,11.7,7.5,12.1,7.5 M12.1,6 c-0.7,0-1.4,0.2-2.2,0.8C9.5,7.1,8.8,7.5,8,8.1c1,1.1,0.3,2.2-0.8,3.3c-0.7,0.7-1.4,1.2-2.1,1.2c-0.4,0-0.8-0.2-1.2-0.6 c-0.2-0.2-0.3-0.4-0.4-0.6c-0.7,0.6-1.3,1.1-1.9,1.7c-2.6,2.6-1.8,5.8,0.9,8.4C4,23.1,5.7,24,7.3,24c1.2,0,2.4-0.5,3.5-1.6 c0.6-0.6,1.1-1.2,1.7-1.9c-0.2-0.1-0.4-0.2-0.6-0.4c-1.1-1.1-0.4-2.2,0.7-3.4c0.7-0.7,1.4-1.2,2.1-1.2c0.4,0,0.8,0.1,1.1,0.5 c0.6-0.8,1-1.5,1.4-1.9c2.2-3-1-5.7-1.4-6C15.7,7.8,14.1,6,12.1,6L12.1,6z"/>
  <path fill="none" stroke="#000" stroke-linejoin="round" stroke-miterlimit="10" d="M17.5 3.7L20.3 6.5M18.9 2.3L21.7 5.1"/>
</svg>