<svg xmlns="http://www.w3.org/2000/svg" id="yoDragon" viewBox="0 0 50 50">
    <path d="M36.9 33c.6 0 4.3 0 4.3 0s-2.7 1.9-3.7 2.3L36.9 33zM37.1 13c1.4-.4 1.4-3.9 1.4-3.9s3 4.1 3.1 7.4L37.1 13zM41.8 17.1c1.2-.2 1.5-3.1 1.5-3.1s2.1 3.7 1.8 6.4L41.8 17.1zM44.3 28c-.2.5-2 4.6-2 4.6s3-2.3 3.9-3.1L44.3 28z"/>
    <path fill="none" stroke="#000" stroke-linecap="round" stroke-linejoin="round" stroke-miterlimit="10" stroke-width="2" d="M22.4 28.6c3 3.5 5.6 9 5.6 20.4M9 49c0 0 2-3 2-8 0-7.9-5-11-5-18 0-5.6 2.9-10.8 8.2-12.7"/>
    <path fill="none" stroke="#000" stroke-linecap="round" stroke-miterlimit="10" stroke-width="2" d="M42.6,22.1c1.7,1.2,2.6,2.4,2.6,2.4"/>
    <path d="M32.7,14.4c0,0,4,2.9,5,4.2c0,0,0.2,1-0.2,1.1c-0.6,0.2-3.1,0.5-4-0.2l0.7-2.4l-2.2,2c-1.2-0.4-2.2-1.1-2.2-1.1S29.5,15.4,32.7,14.4z"/>
    <path fill="none" stroke="#000" stroke-linecap="round" stroke-linejoin="round" stroke-miterlimit="10" stroke-width="2" d="M6.5 6.1c1.7 4-1.2 7.3-5.3 7.6 2.3 2.8 3 9.3-.2 12.1 2.9 2.3 4.2 5.3 1 10 4.4 1.1 5.1 6.4 2 9.3 3.9 1.3 5.1 3.5 5.1 3.5M36.1 13.2c0 0-4.1-3.6-4.3-8.9-1.5 1.2-6.4 2.6-7.7-3-1.1 2.7-5.8 6-9.8.5-.2 1.1-1.7 1.6-1.7 1.6M38.1 37c0 0-1.1 1-2.8 1.5-1.7.4-4.5.8-4.5.8l2.5-3.7L26.5 29c-2.1 1.1-12-3.3-7.4-11.5M37 24.2c-.6-.1-1.2 0-1.8.4-.5.3-.8.7-.9 1.2"/>
    <path fill="none" stroke="#000" stroke-linecap="round" stroke-linejoin="round" stroke-miterlimit="10" stroke-width="2" d="M37.2,18.8C28,8.4,7.5,14.8,3.6,1C9.5,10.2,23.8,6.1,37,13.7c10,5.8,13.7,14.9,11.2,16.4"/>
    <path d="M36.9 24.6l-.1 1.5 1.6-.9-.1 1.6 1.7-.5L40 27.6l1.2-.6.1 1.5 1.6-.7c0 0-.4 1.4-.2 1.3.2-.1 1.7-.5 1.7-.5l.1 1.3 1.3-.3.1 1.3 1.3-.6v1.2l1.1-.4-.1-2.2c0 0-2.2-1.2-4.2-2.3s-5.2-3.2-6.6-3.4C36.5 23.1 36.9 24.6 36.9 24.6zM38.6 36.3l1-1.1-1.9-.5 1.1-1-1.7-.6.9-1-1.3-.3.9-1.2L36 30.1c0 0 1.1-.9 1-.9-.1-.1-1.6-.6-1.6-.6l.7-1-1.2-.5.7-1.1-1.8-1.4c0 0-.6.8-.6 2.1 0 1.1 1.4 4 1.4 4l2.4 6L38.6 36.3z"/>
    <path fill="none" stroke="#000" stroke-linecap="round" stroke-linejoin="round" stroke-miterlimit="10" stroke-width="2" d="M23.7 2.7c0 0 0 1.6.1 2.9M14.4 3.3L14.3 4.5M31.4 5c0 0-1 1.5-1.4 2.4M2.2 14.3L4.3 15M1.4 25.7l2.1-.3M2.8 35.5c0 0 1.5-.3 3-1.1M4.8 44.9c0 0 1.3-.4 3.1-1.4"/>
</svg>