<svg xmlns="http://www.w3.org/2000/svg" id="yoRabbit" viewBox="0 0 24 24">
    <path fill="none" stroke="#000" stroke-linejoin="round" stroke-miterlimit="10" stroke-width="2" d="M12,22c0-6.4,4.6,0.1,6.3-5.5c0,0,0.7-0.2,0.7-0.8c0-0.4-1.4-4.7-7.6-4.7c0-5.4-3.7-7-4.8-7C6.2,4,6,4.1,6,4.5c0,3.3,1.1,5.4,3,7.1C6.5,12.3,7.5,18,5,18"/>
    <path fill="none" stroke="#000" stroke-linejoin="round" stroke-miterlimit="10" stroke-width="2" d="M9,5.1C9,5.1,8.8,3,9.9,3c0.5,0,4.1,1.9,4.1,8.3"/>
    <path d="M14 13.299999999999999A0.8 0.8 0 1 0 14 14.9A0.8 0.8 0 1 0 14 13.299999999999999Z"/>
</svg>