<svg width="44" height="44" viewBox="0 0 44 44" fill="none"
  xmlns="http://www.w3.org/2000/svg">
  <path d="M28.5217 21.3077L22.2437 27.5867L15.8788 21.2227C14.5428 19.8857 14.7378 17.5727 16.4758 16.5097C17.7548 15.7267 19.4187 15.9657 20.5557 16.9447L20.7367 17.0997L21.9117 18.1417C22.1007 18.3097 22.3857 18.3097 22.5747 18.1417L23.7498 17.0997L24.0597 16.8307C25.4047 15.6457 27.4587 15.7457 28.6877 17.0637C29.8018 18.2567 29.6757 20.1537 28.5217 21.3077ZM26.4287 14.0097C25.1137 13.9677 23.7987 14.4057 22.7378 15.3397L22.2507 15.7707L21.7618 15.3377C19.6558 13.4727 16.4607 13.5687 14.4717 15.5577L14.4647 15.5657C12.5117 17.5177 12.5117 20.6837 14.4647 22.6367L21.8897 30.0607C22.0847 30.2567 22.4018 30.2567 22.5968 30.0607L29.8757 22.7817C31.8717 20.7867 31.9697 17.4207 29.9277 15.4747C28.9507 14.5427 27.6967 14.0437 26.4287 14.0097Z" fill="white" fill-opacity="0.6"/>
</svg>
